
<svg width="24" height="24" viewBox="0 0 24 24" fill="none" xmlns="http://www.w3.org/2000/svg">
<path fill-rule="evenodd" clip-rule="evenodd" d="M19.75 12C19.75 11.5858 19.4142 11.25 19 11.25H5C4.58578 11.25 4.25 11.5858 4.25 12C4.25 12.4142 4.58578 12.75 5 12.75H19C19.4142 12.75 19.75 12.4142 19.75 12Z" fill="white"/>
<path fill-rule="evenodd" clip-rule="evenodd" d="M19.5303 11.4697C19.2374 11.1768 18.7626 11.1768 18.4697 11.4697L14.4697 15.4697C14.1768 15.7626 14.1768 16.2374 14.4697 16.5303C14.7626 16.8232 15.2374 16.8232 15.5303 16.5303L19.5303 12.5303C19.8232 12.2374 19.8232 11.7626 19.5303 11.4697Z" fill="white"/>
<path fill-rule="evenodd" clip-rule="evenodd" d="M14.4697 7.46967C14.1768 7.76256 14.1768 8.23744 14.4697 8.53033L18.4697 12.5303C18.7626 12.8232 19.2374 12.8232 19.5303 12.5303C19.8232 12.2374 19.8232 11.7626 19.5303 11.4697L15.5303 7.46967C15.2374 7.17678 14.7626 7.17678 14.4697 7.46967Z" fill="white"/>
</svg>
