<svg width="24" height="24" viewBox="0 0 24 24" fill="none" xmlns="http://www.w3.org/2000/svg">
<path fill-rule="evenodd" clip-rule="evenodd" d="M22 12C22 17.5228 17.5228 22 12 22C6.47715 22 2 17.5228 2 12C2 6.47715 6.47715 2 12 2C17.5228 2 22 6.47715 22 12ZM7.53025 16.5307C7.82314 16.8236 8.29802 16.8236 8.59091 16.5307L12.0606 13.061L15.5307 16.5311C15.8236 16.824 16.2985 16.824 16.5914 16.5311C16.8843 16.2382 16.8843 15.7634 16.5914 15.4705L13.1212 12.0003L16.5307 8.59088C16.8236 8.29799 16.8236 7.82311 16.5307 7.53022C16.2378 7.23733 15.7629 7.23733 15.47 7.53022L12.0606 10.9397L8.65157 7.53068C8.35868 7.23778 7.8838 7.23778 7.59091 7.53068C7.29802 7.82357 7.29802 8.29844 7.59091 8.59134L10.9999 12.0003L7.53025 15.47C7.23736 15.7629 7.23736 16.2378 7.53025 16.5307Z" fill="currentColor"/>
<path fill-rule="evenodd" clip-rule="evenodd" d="M7.53022 16.5307C7.82311 16.8236 8.29798 16.8236 8.59088 16.5307L12.0605 13.061L15.5307 16.5311C15.8236 16.824 16.2984 16.824 16.5913 16.5311C16.8842 16.2382 16.8842 15.7634 16.5913 15.4705L13.1212 12.0003L16.5307 8.59088C16.8236 8.29798 16.8236 7.82311 16.5307 7.53022C16.2378 7.23732 15.7629 7.23732 15.47 7.53022L12.0605 10.9397L8.65154 7.53067C8.35864 7.23778 7.88377 7.23778 7.59088 7.53067C7.29798 7.82357 7.29798 8.29844 7.59088 8.59133L10.9999 12.0003L7.53022 15.47C7.23732 15.7629 7.23732 16.2378 7.53022 16.5307Z" fill="white"/>
</svg>
