<svg width="122" height="32" viewBox="0 0 122 32" fill="none" xmlns="http://www.w3.org/2000/svg">
<path d="M117.763 10.2757C117.765 10.3449 117.769 10.4132 117.769 10.4824C117.769 14.1463 117.769 17.8111 117.769 21.4749C117.769 21.5442 117.764 21.6124 117.761 21.6816C115.981 21.6816 114.201 21.6816 112.421 21.6816C112.389 21.6816 112.358 21.6806 112.326 21.6816C112.265 21.6816 112.233 21.6535 112.232 21.5913C112.232 21.5351 112.231 21.4789 112.231 21.4217C112.231 18.8186 112.231 16.2155 112.229 13.6134C112.229 13.5421 112.259 13.4619 112.192 13.4006C112.111 13.3846 112.091 13.4538 112.055 13.498C111.566 14.1141 111.075 14.7303 110.586 15.3475C110.023 16.0569 109.461 16.7664 108.902 17.4799C108.836 17.5642 108.766 17.5923 108.663 17.5913C107.516 17.5883 106.369 17.5883 105.222 17.5913C105.12 17.5913 105.053 17.5622 104.982 17.4809C104.525 16.9521 104.059 16.4292 103.597 15.9044C103.585 15.8904 103.579 15.8723 103.57 15.8552C103.537 15.8121 103.491 15.781 103.461 15.7358C102.994 15.206 102.526 14.6771 102.059 14.1473C101.874 13.9365 101.69 13.7238 101.505 13.512C101.508 13.4779 101.494 13.4508 101.472 13.4277C101.446 13.4006 101.422 13.3665 101.379 13.3776C101.326 13.3916 101.322 13.4388 101.321 13.4829C101.319 13.5331 101.321 13.5833 101.321 13.6335C101.321 16.2376 101.321 18.8417 101.321 21.4458C101.321 21.6957 101.341 21.6827 101.089 21.6827C99.408 21.6827 97.7271 21.6827 96.0472 21.6827C95.8104 21.6827 95.8184 21.6987 95.8184 21.4609C95.8184 17.796 95.8184 14.1312 95.8184 10.4674C95.8184 10.4052 95.8234 10.3419 95.8254 10.2797C95.8816 10.2777 95.9378 10.2747 95.994 10.2747C98.1445 10.2747 100.294 10.2757 102.445 10.2707C102.582 10.2707 102.678 10.3108 102.773 10.4041C104.543 12.1422 106.314 13.8793 108.087 15.6154C108.171 15.6977 108.24 15.796 108.347 15.8522C108.387 15.8954 108.442 15.9195 108.485 15.9586C108.496 15.9696 108.506 15.9827 108.516 15.9957C108.521 16.0018 108.525 16.0078 108.53 16.0138C108.54 16.0258 108.549 16.0379 108.558 16.0499C108.564 16.0549 108.569 16.061 108.574 16.066C108.589 16.078 108.602 16.0921 108.614 16.1051C108.638 16.0991 108.619 16.1262 108.622 16.1021C108.622 16.0951 108.612 16.0881 108.605 16.081C108.595 16.072 108.586 16.062 108.576 16.0529C108.567 16.0419 108.559 16.0299 108.552 16.0178C108.544 16.0058 108.537 15.9927 108.53 15.9807C108.522 15.9686 108.515 15.9556 108.508 15.9425C108.493 15.9175 108.476 15.8934 108.464 15.8663C108.455 15.8462 108.446 15.8251 108.437 15.8051H108.438C108.408 15.792 108.42 15.7529 108.393 15.7368C108.321 15.5783 108.193 15.4528 108.123 15.2913C108.096 15.2541 108.092 15.2009 108.047 15.1759C107.838 14.8587 107.63 14.5396 107.418 14.2235C107.374 14.1573 107.363 14.1071 107.425 14.0439C107.561 13.9064 107.691 13.7619 107.823 13.6214C107.889 13.5482 107.96 13.4809 108.02 13.4037C108.484 12.8979 108.948 12.3921 109.412 11.8863C109.428 11.8683 109.441 11.8462 109.455 11.8261C109.49 11.785 109.533 11.7519 109.566 11.7077C109.893 11.3545 110.219 11.0012 110.546 10.648C110.66 10.5246 110.759 10.36 110.901 10.2948C111.037 10.2325 111.221 10.2747 111.384 10.2747C113.509 10.2747 115.636 10.2747 117.761 10.2757H117.763Z" fill="currentColor"/>
<path d="M90.3626 21.6854C90.2873 21.6854 90.2121 21.6854 90.1368 21.6854C88.8393 21.6854 87.5407 21.6844 86.2432 21.6844C83.1453 21.6844 80.0485 21.6854 76.9506 21.6834C76.2311 21.6834 75.5106 21.7085 74.7911 21.6483C74.7228 21.6423 74.6536 21.6503 74.5843 21.6523C74.4659 21.6964 74.3615 21.6222 74.2502 21.6122C73.6531 21.4626 73.0921 21.2338 72.6064 20.8485C72.3033 20.6086 72.0274 20.3407 71.8357 19.9985C71.7976 19.9684 71.7936 19.9142 71.7594 19.8821C71.5096 19.4847 71.3721 19.0502 71.3069 18.5855C71.2637 18.2795 71.2627 17.9734 71.2627 17.6673C71.2627 16.4892 71.2627 15.3111 71.2627 14.133C71.2627 13.6733 71.3129 13.2208 71.4353 12.7772C71.4654 12.6688 71.5086 12.5645 71.5457 12.4591C71.5808 12.4129 71.5949 12.3577 71.6149 12.3046C71.9541 11.564 72.5 11.0301 73.2336 10.6849C73.2808 10.6528 73.34 10.6467 73.3891 10.6166C73.9702 10.3808 74.5753 10.2734 75.2025 10.2734C80.1378 10.2744 85.0721 10.2734 90.0073 10.2734C90.9015 10.2734 91.7204 10.5163 92.4549 11.0321C92.5011 11.0642 92.5422 11.1023 92.5854 11.1375C92.6526 11.1816 92.7058 11.2428 92.77 11.291C93.1463 11.6462 93.4243 12.0617 93.5427 12.5705C93.607 12.8465 93.5999 13.1314 93.5949 13.4134C93.5929 13.4957 93.5568 13.5429 93.4675 13.5359C93.4303 13.5329 93.3922 13.5359 93.3551 13.5359C91.612 13.5359 89.8689 13.5359 88.1248 13.5359C88.1057 13.5359 88.0876 13.5359 88.0686 13.5359C87.8357 13.5329 87.8107 13.5068 87.8006 13.279C87.7946 13.1294 87.7866 12.9789 87.7274 12.8374C87.5929 12.5163 87.325 12.3748 87.0088 12.2965C86.8011 12.2453 86.5904 12.2263 86.3756 12.2263C83.7043 12.2283 81.0329 12.2283 78.3616 12.2263C77.9421 12.2263 77.5728 12.3457 77.2788 12.6568C77.0148 12.9348 76.9085 13.279 76.9004 13.6503C76.8884 14.2464 76.8964 14.8424 76.8964 15.4385C76.8964 16.3738 76.8894 17.3081 76.8994 18.2434C76.9065 18.8976 77.2938 19.4145 77.8859 19.6352C77.915 19.6463 77.9471 19.6493 77.9772 19.6563C78.0966 19.6995 78.2201 19.7085 78.3465 19.7085C81.1012 19.7075 83.8548 19.7075 86.6094 19.7085C86.7489 19.7085 86.8844 19.6974 87.0179 19.6573C87.2678 19.6132 87.4986 19.5289 87.6912 19.3542C87.8468 19.2138 87.9411 19.0401 87.9522 18.8314C87.9772 18.3618 87.9632 17.8921 87.9592 17.4225C87.9582 17.285 87.917 17.2519 87.7805 17.2248C87.6561 17.1997 87.5307 17.2077 87.4062 17.2067C85.9662 17.1937 84.5261 17.1736 83.0861 17.1776C82.7228 17.1776 82.4107 17.0893 82.1298 16.8715C82.0896 16.8404 82.0465 16.8164 82.0043 16.7903C81.9732 16.7561 81.9311 16.7391 81.8929 16.716H81.8919C81.8769 16.6889 81.8367 16.6979 81.8227 16.6698C81.4514 16.4129 81.0801 16.156 80.6967 15.9162C80.6626 15.8851 80.6104 15.8791 80.5833 15.8379C80.3666 15.6904 80.1508 15.5429 79.9341 15.3954C79.8769 15.3562 79.8217 15.3161 79.7645 15.278C79.7223 15.2499 79.7093 15.2117 79.7193 15.1646C79.7314 15.1134 79.7735 15.0973 79.8177 15.0923C79.8668 15.0873 79.918 15.0873 79.9682 15.0873C84.0374 15.0873 88.1067 15.0873 92.1759 15.0873C92.4208 15.0873 92.6637 15.0993 92.9015 15.1686C93.2898 15.282 93.5688 15.578 93.5799 15.9684C93.5839 16.1119 93.5979 16.2564 93.5959 16.3999C93.5869 17.1586 93.612 17.9182 93.5779 18.6769C93.5518 19.2559 93.4183 19.8018 93.1223 20.3046C92.8714 20.7311 92.5252 21.0542 92.0876 21.283C92.0264 21.3151 91.9672 21.3492 91.907 21.3833C91.8207 21.4285 91.7214 21.4395 91.6381 21.4927C91.4845 21.5128 91.343 21.577 91.1935 21.6122C90.9878 21.6051 90.7921 21.6744 90.5884 21.6824C90.5141 21.6834 90.4389 21.6844 90.3646 21.6854H90.3626Z" fill="currentColor"/>
<path d="M71.4294 21.6084C71.4234 21.6495 71.4063 21.6796 71.3592 21.6806C71.303 21.6816 71.2468 21.6826 71.1906 21.6826C69.2367 21.6826 67.2829 21.6826 65.329 21.6826C65.304 21.6826 65.2789 21.6846 65.2538 21.6866C65.1705 21.6475 65.0812 21.6766 64.9959 21.6676C64.9246 21.6716 64.8654 21.6355 64.8022 21.6114C64.5072 21.4689 64.2362 21.2812 63.9522 21.1186C63.9091 21.0946 63.8659 21.0705 63.8228 21.0464C63.7856 20.9992 63.7174 21.0053 63.6783 20.9621C63.612 20.9169 63.5458 20.8718 63.4786 20.8276C63.4465 20.7935 63.3943 20.7885 63.3622 20.7534C63.0942 20.6109 62.8413 20.4453 62.5834 20.2867C62.5493 20.2556 62.5021 20.2476 62.469 20.2165C62.3667 20.1733 62.2864 20.089 62.177 20.0589C62.1449 20.0228 62.0927 20.0158 62.0596 19.9827C62.0566 19.9756 62.0526 19.9686 62.0486 19.9616C62.0215 19.9184 61.9693 19.9134 61.9331 19.8853C61.5819 19.6977 61.2478 19.4789 60.9066 19.2732C60.747 19.1778 60.5894 19.0785 60.4309 18.9812C60.4028 18.939 60.3516 18.933 60.3135 18.9069C60.2161 18.8537 60.1198 18.8005 60.0225 18.7473C59.9833 18.7032 59.9161 18.7072 59.8759 18.663C59.6221 18.5055 59.3682 18.3469 59.1133 18.1914C58.7992 17.9997 58.4861 17.8081 58.169 17.6224C57.9 17.4659 57.604 17.3685 57.2969 17.3645C56.3386 17.3535 55.3802 17.3625 54.4218 17.3635C54.3436 17.4187 54.3797 17.501 54.3797 17.5702C54.3767 18.636 54.3777 19.7027 54.3777 20.7684C54.3777 21.0193 54.3797 21.2702 54.3777 21.5211C54.3757 21.6595 54.3616 21.6726 54.2292 21.6786C54.179 21.6806 54.1288 21.6786 54.0786 21.6786C52.3235 21.6786 50.5693 21.6806 48.8142 21.6806C48.7951 21.6736 48.7811 21.6595 48.769 21.6435H48.7721C48.7721 17.9405 48.7721 14.2365 48.7731 10.5336C48.7731 10.4473 48.754 10.357 48.8072 10.2767C49.7414 10.2757 50.6757 10.2737 51.611 10.2737C52.458 10.2737 53.3039 10.2737 54.1509 10.2737C54.188 10.2737 54.2262 10.2737 54.2633 10.2737C54.4028 10.2777 54.4048 10.2777 54.4048 10.4252C54.4048 11.216 54.4048 12.0067 54.4048 12.7975C54.4048 13.3434 54.4048 13.8893 54.4048 14.4352C54.4048 14.6129 54.4068 14.6149 54.5774 14.6149C55.4113 14.6149 56.2452 14.6129 57.0802 14.6159C57.5448 14.6179 57.9693 14.4944 58.3586 14.2436C58.5001 14.1522 58.6426 14.0639 58.7851 13.9736C58.8233 13.9285 58.8915 13.9335 58.9296 13.8883C59.314 13.6595 59.6993 13.4327 60.0827 13.2019C60.6466 12.8617 61.2096 12.5195 61.7726 12.1773C61.8047 12.1583 61.8338 12.1352 61.8649 12.1131C61.9051 12.092 61.9432 12.0689 61.9803 12.0429C62.2563 11.8793 62.5322 11.7167 62.8092 11.5531C62.8423 11.522 62.8905 11.514 62.9226 11.4819C62.9467 11.4678 62.9718 11.4538 62.9959 11.4397C63.03 11.4106 63.0772 11.4006 63.1103 11.3685C63.4123 11.1818 63.7144 10.9942 64.0164 10.8075C64.0556 10.7654 64.1238 10.7704 64.161 10.7232C64.2683 10.66 64.3767 10.5988 64.4831 10.5326C64.7601 10.36 65.0541 10.2646 65.3862 10.2656C67.3862 10.2707 69.3863 10.2676 71.3853 10.2686C71.4274 10.2686 71.4726 10.2576 71.5117 10.2857C71.5197 10.3369 71.4746 10.3449 71.4475 10.363C70.4359 11.0273 69.4224 11.6896 68.4118 12.3539C67.6612 12.8477 66.9136 13.3454 66.164 13.8402C65.8358 14.0569 65.5057 14.2707 65.1765 14.4864C65.1615 14.5135 65.1223 14.5035 65.1083 14.5316H65.1063C65.0671 14.5537 65.026 14.5717 64.9949 14.6058C64.5343 14.9059 64.0696 15.1999 63.617 15.511C63.4846 15.6023 63.3762 15.5993 63.2367 15.5552C62.8082 15.4197 62.3757 15.2942 61.9452 15.1658C61.8519 15.1166 61.7475 15.1106 61.6471 15.0885C61.614 15.0775 61.5829 15.0594 61.5488 15.0514C61.5247 15.0454 61.5187 15.0695 61.5428 15.0614C61.5669 15.0534 61.5448 15.0966 61.5558 15.0735C61.599 15.1036 61.6502 15.1226 61.6742 15.1728C62.1108 15.4618 62.5473 15.7508 62.9828 16.0409C63.2638 16.2275 63.5428 16.4162 63.8228 16.6038C63.8549 16.6369 63.903 16.645 63.9352 16.6761C63.9602 16.6901 63.9843 16.7032 64.0094 16.7172C64.0486 16.7393 64.0907 16.7574 64.1208 16.7925C64.461 17.0183 64.8002 17.2441 65.1404 17.4709C65.1785 17.4939 65.2197 17.512 65.2518 17.5441C65.3893 17.6334 65.5277 17.7228 65.6652 17.8121C65.6953 17.8301 65.7184 17.8592 65.7505 17.8753C66.17 18.1302 66.5734 18.4092 66.9828 18.6791C67.0149 18.7102 67.0631 18.7162 67.0932 18.7514C67.1595 18.7975 67.2267 18.8437 67.2929 18.8898C67.324 18.927 67.3782 18.93 67.4093 18.9671C67.7375 19.1558 68.0436 19.3786 68.3617 19.5823C68.456 19.6425 68.5473 19.7067 68.6406 19.7689C68.6978 19.796 68.737 19.8502 68.7962 19.8743C69.2688 20.1824 69.7415 20.4904 70.2142 20.7985C70.2503 20.8226 70.2894 20.8417 70.3265 20.8638C70.3556 20.9029 70.4098 20.9059 70.442 20.941C70.5172 20.9902 70.5915 21.0404 70.6667 21.0895C70.7009 21.1026 70.7219 21.1337 70.754 21.1508C70.8293 21.2019 70.9056 21.2521 70.9808 21.3033C71.0079 21.3434 71.0601 21.3474 71.0932 21.3796C71.2096 21.4498 71.325 21.5201 71.4294 21.6074V21.6084Z" fill="currentColor"/>
<path d="M63.752 18.6519C63.8407 18.623 63.956 18.6068 64.0962 18.603C64.0199 18.6379 63.8974 18.65 63.752 18.6519Z" fill="currentColor"/>
<path d="M39.5282 13.638C39.5199 13.2045 39.4431 12.7814 39.323 12.3661C39.2993 12.3235 39.293 12.2753 39.2783 12.2306C39.1932 11.9612 39.0843 11.7008 38.9572 11.4488C38.93 11.4055 38.9104 11.358 38.8825 11.3155C38.7171 10.9706 38.5 10.6572 38.2808 10.3458C38.2535 10.3116 38.2242 10.2795 38.2019 10.2418C38.1726 10.2041 38.1446 10.1657 38.1146 10.1287C37.8794 9.83902 37.6406 9.55211 37.3691 9.29522C37.3453 9.28195 37.3335 9.25752 37.3153 9.23937C37.2923 9.21075 37.2588 9.1926 37.2364 9.16328C37.2162 9.14094 37.1967 9.11721 37.175 9.09626C36.9565 8.88544 36.7296 8.6844 36.4965 8.48963C36.4637 8.46101 36.4295 8.43448 36.3946 8.40796C36.1991 8.24321 35.9946 8.09103 35.7886 7.94024C35.7684 7.91511 35.7377 7.90394 35.7125 7.88649C35.3984 7.6638 35.0801 7.4474 34.745 7.25543C34.7171 7.22541 34.671 7.2282 34.6431 7.19749C34.4672 7.08091 34.2815 6.98108 34.0937 6.88544C34.0476 6.86241 34.0015 6.84007 33.9583 6.81284C33.626 6.63763 33.2867 6.47777 32.9377 6.33885C32.8965 6.31511 32.8448 6.31721 32.8057 6.28859C32.6898 6.25298 32.5747 6.21459 32.4581 6.18318C32.3492 6.15386 32.2382 6.12873 32.1237 6.13571C31.9666 6.14618 31.8591 6.22576 31.9485 6.4275C31.9673 6.47078 32.0134 6.51127 31.9862 6.57759C31.8047 6.47707 31.6337 6.36747 31.4494 6.283C31.4033 6.25996 31.3572 6.23763 31.3139 6.2097C31.1743 6.12244 31.0256 6.05263 30.8783 5.98143C30.6145 5.85368 30.3485 5.73082 30.0839 5.60586C30.0427 5.58283 29.9939 5.57724 29.9534 5.55281C29.9275 5.54373 29.9017 5.53466 29.8759 5.52489C29.8277 5.48928 29.7649 5.48579 29.7153 5.45298C29.2134 5.24565 28.7045 5.05927 28.1858 4.9001C27.9652 4.83239 27.7433 4.77096 27.5136 4.73885C27.3398 4.71511 27.1659 4.70115 26.9914 4.72C26.7583 4.74583 26.657 4.84635 26.7624 5.07602C26.7478 5.10394 26.8511 5.14304 26.7541 5.16328C26.4504 5.02995 26.146 4.89661 25.8424 4.76398C25.8054 4.73117 25.7537 4.73396 25.7125 4.71232C25.6839 4.70255 25.6546 4.69487 25.6267 4.683C25.168 4.48754 24.6975 4.32628 24.2207 4.18318C24.0846 4.14199 23.9492 4.08963 23.804 4.08195C23.6741 4.04216 23.5359 4.04705 23.4061 4.00866C23.39 4.00656 23.3733 4.00517 23.3572 4.00307C23.1806 4.00307 23.004 4.00307 22.8267 4.00237C22.8106 4.00447 22.7953 4.00656 22.7792 4.00866C22.6647 4.09522 22.6619 4.10708 22.731 4.23832C22.8092 4.3193 22.8902 4.39749 22.9823 4.46311C23.3677 4.73675 23.7754 4.9755 24.1691 5.23588C24.19 5.25962 24.2235 5.2645 24.2459 5.28684C24.4979 5.46415 24.7499 5.64077 25.0019 5.81808C25.0124 5.82436 25.0214 5.83204 25.0305 5.84042C25.0542 5.86066 25.0857 5.87113 25.1073 5.89487C25.2225 5.98073 25.3384 6.0666 25.4536 6.15176C25.4724 6.17829 25.5052 6.18667 25.5275 6.20761C25.7356 6.37794 25.9471 6.54408 26.1516 6.7186C26.6312 7.12768 27.0808 7.56817 27.5038 8.03518C27.9506 8.52733 28.3687 9.04181 28.7408 9.5933C28.8574 9.76572 28.9719 9.93955 29.0871 10.112C29.1234 10.1497 29.1345 10.2027 29.1666 10.2425C29.2281 10.3556 29.2895 10.4687 29.3509 10.5818C29.3782 10.6118 29.374 10.6579 29.4061 10.6858C29.626 11.0795 29.811 11.4893 29.9548 11.9172C29.975 11.9605 29.9764 12.0101 30.0022 12.0512C30.0371 12.1629 30.0741 12.2746 30.1056 12.387C30.1984 12.7186 30.2584 13.0565 30.2947 13.3992C30.3192 13.6296 30.3143 13.8607 30.3171 14.091C30.2975 14.1364 30.3108 14.1846 30.3066 14.2306C30.2905 14.4219 30.2892 14.6139 30.2445 14.8017C30.2256 14.979 30.1858 15.1535 30.1453 15.3259C30.0707 15.6464 29.9673 15.9591 29.8452 16.2655C29.8256 16.2998 29.8193 16.3402 29.7991 16.3744C29.5764 16.8882 29.2951 17.3671 28.9537 17.8111C28.9488 17.823 28.9405 17.8313 28.9307 17.839C28.9202 17.8628 28.8986 17.8767 28.8825 17.8956C28.8727 17.9102 28.8644 17.9256 28.8539 17.9388C28.5377 18.3277 28.1872 18.6837 27.797 18.9985C27.3286 19.3769 26.8225 19.6945 26.2717 19.9402C25.9981 20.0624 25.7181 20.1678 25.4368 20.269C25.0731 20.3996 24.7045 20.5141 24.3324 20.6167C24.1063 20.6795 23.8794 20.7375 23.6497 20.7891C23.4298 20.8387 23.2113 20.8952 22.9886 20.9343C22.9195 20.9601 22.8455 20.9608 22.775 20.9804C22.6005 21.0125 22.4253 21.046 22.2508 21.0767C21.9771 21.1249 21.7035 21.1689 21.4305 21.2191C21.1876 21.2638 20.9642 21.3525 20.7869 21.534C20.567 21.758 20.4979 22.1769 20.6864 22.4191C20.7122 22.4464 20.7401 22.4708 20.7645 22.5001C20.9872 22.7018 21.2323 22.875 21.4689 23.0593C21.6958 23.2352 21.9192 23.416 22.0916 23.6498C22.2284 23.8355 22.3324 24.038 22.3513 24.2676C22.3911 24.7368 22.2605 25.1535 21.9338 25.5025C21.6337 25.823 21.2539 26.0087 20.8455 26.1406C20.5761 26.2272 20.2996 26.2823 20.0176 26.3172C19.7579 26.3493 19.5052 26.3207 19.2511 26.2781C19.0619 26.2467 18.8783 26.1943 18.694 26.1427C18.6242 26.1162 18.5495 26.1022 18.4832 26.0659C18.2864 25.9863 18.0944 25.8949 17.9192 25.7734C17.4487 25.4474 17.1834 25.0062 17.1792 24.4254C17.1778 24.2607 17.1932 24.0945 17.2762 23.9444C17.2958 23.9102 17.3021 23.8697 17.3279 23.8383V23.8397C17.3453 23.8272 17.3391 23.8013 17.3572 23.7902V23.7888C17.3733 23.7615 17.3872 23.7336 17.4089 23.7099C17.4361 23.6443 17.4864 23.5947 17.5317 23.5423C17.7209 23.3245 17.9485 23.15 18.1775 22.9769C18.3715 22.8296 18.5691 22.6879 18.7471 22.521C18.9768 22.3067 19.0228 22.0254 18.8881 21.7392C18.8141 21.5821 18.6961 21.4739 18.56 21.3776C18.5125 21.3406 18.456 21.3231 18.4022 21.2994C18.3485 21.2833 18.2947 21.2659 18.2403 21.2526C18.0211 21.1996 17.7977 21.164 17.575 21.1291C17.3007 21.0858 17.0284 21.0306 16.7555 20.9804C16.694 20.9601 16.6284 20.9587 16.567 20.9364C16.5286 20.9301 16.4909 20.9231 16.4525 20.9176C16.2989 20.8966 16.1537 20.8373 15.9994 20.8226C15.9359 20.8101 15.8703 20.8038 15.8103 20.7765C15.7049 20.75 15.5988 20.7249 15.494 20.6956C15.1974 20.6125 14.8986 20.5357 14.6047 20.4422C14.2745 20.3368 13.9464 20.2237 13.6253 20.0931C13.397 19.9996 13.1645 19.9144 12.9523 19.7846C12.9028 19.7525 12.8434 19.7378 12.796 19.7015C12.6459 19.6415 12.5195 19.5395 12.3771 19.4655C12.3548 19.4432 12.3255 19.4313 12.2996 19.4146C12.0239 19.2247 11.7558 19.0244 11.5052 18.801C11.1701 18.5029 10.8602 18.1804 10.5928 17.8188C10.5796 17.7978 10.5579 17.7832 10.546 17.7608C10.537 17.7525 10.5286 17.7441 10.5223 17.7329C10.1398 17.2177 9.83121 16.6621 9.61132 16.0582C9.37886 15.4195 9.24203 14.7626 9.22807 14.0813C9.22318 13.8327 9.23156 13.5842 9.23924 13.3357C9.26856 13.187 9.26716 13.0327 9.31114 12.8861C9.34744 12.7298 9.38165 12.572 9.42074 12.4163C9.49544 12.121 9.60434 11.8376 9.70975 11.5528C9.73069 11.5186 9.73418 11.4774 9.75722 11.4446C9.945 11.0013 10.1712 10.5783 10.4197 10.1671C10.7087 9.68824 11.0333 9.23309 11.3803 8.79469C11.4068 8.77585 11.4138 8.74234 11.4375 8.7214C11.8193 8.25508 12.2214 7.80761 12.6536 7.38667C12.8553 7.19051 13.0654 7.00202 13.2714 6.81005C13.3258 6.76817 13.3684 6.71372 13.4256 6.67602C13.8675 6.31162 14.3185 5.95909 14.789 5.63169C15.0738 5.43344 15.3565 5.23239 15.6532 5.05298C15.6762 5.03134 15.7042 5.01808 15.7314 5.00272C15.975 4.84286 16.2186 4.6837 16.4623 4.52384C16.4874 4.51616 16.5007 4.49243 16.5209 4.47916C16.6235 4.41564 16.7157 4.33815 16.7911 4.24391C16.8839 4.12873 16.8651 4.05962 16.7275 4.00098C16.5342 4.00098 16.3408 4.00098 16.1474 4.00098C15.8563 4.0303 15.5743 4.10429 15.2944 4.18597C14.8567 4.31372 14.4302 4.47358 14.0036 4.63344C13.9611 4.65438 13.9136 4.66345 13.871 4.6844C13.679 4.76537 13.4864 4.84496 13.2951 4.92733C13.1073 5.00831 12.9279 5.11023 12.7045 5.18352C12.7387 5.12698 12.7576 5.09906 12.7729 5.06904C12.8672 4.88824 12.8316 4.77794 12.6166 4.72349C12.5153 4.69836 12.4085 4.70604 12.3038 4.70883C11.9248 4.7186 11.5659 4.8275 11.2085 4.9385C10.923 5.02715 10.6438 5.13536 10.3618 5.23518C10.3199 5.25682 10.2738 5.26799 10.2291 5.28475L9.83819 5.4467C9.79003 5.4844 9.7265 5.48649 9.67694 5.52C9.66437 5.52209 9.64971 5.5214 9.63854 5.52628C8.99212 5.8118 8.35338 6.11127 7.74256 6.46939C7.67135 6.51127 7.59666 6.54688 7.52336 6.58597C7.55268 6.49382 7.59177 6.41703 7.60922 6.33187C7.62668 6.24461 7.58898 6.17969 7.50661 6.14548C7.46472 6.12803 7.42144 6.12803 7.37816 6.12803C7.23296 6.12803 7.09474 6.16712 6.95722 6.20831C6.8902 6.24321 6.81341 6.25019 6.7457 6.2823C6.72057 6.28789 6.69334 6.28998 6.66961 6.29975C6.13837 6.51546 5.62319 6.76468 5.12545 7.04879C5.09683 7.06136 5.071 7.07811 5.04518 7.09626C4.74151 7.26869 4.44343 7.45019 4.15652 7.64845C4.13069 7.6659 4.10137 7.67846 4.07833 7.7001L3.92127 7.80551C3.89544 7.82297 3.86472 7.83344 3.84518 7.85996C3.47729 8.12105 3.12406 8.40098 2.7834 8.69696C2.52441 8.92174 2.28357 9.16607 2.03785 9.40482C2.01411 9.43413 1.98619 9.45927 1.95966 9.48579C1.95547 9.49347 1.95268 9.50255 1.94709 9.50883C1.63296 9.84042 1.34605 10.195 1.08846 10.5727C0.652156 11.2121 0.310097 11.8963 0.133482 12.6558C0.0469204 13.0265 -0.00752994 13.402 0.000847026 13.7825C0.0120163 14.29 0.100673 14.7842 0.271702 15.2645C0.431563 15.7141 0.644477 16.1343 0.910446 16.5287C0.926502 16.5546 0.938369 16.5832 0.962103 16.6041C1.04448 16.7416 1.1443 16.8673 1.24343 16.9929C1.64483 17.5025 2.10626 17.9528 2.60957 18.3612C2.83854 18.5469 3.0738 18.7242 3.31952 18.8861C3.34046 18.9092 3.36908 18.9217 3.39561 18.9378C3.41306 18.9476 3.42982 18.9573 3.44727 18.9671C3.4717 18.9874 3.50172 18.9992 3.52545 19.0195C3.85285 19.2491 4.20259 19.4425 4.55582 19.6289C4.93627 19.8299 5.3279 20.0066 5.7251 20.1734C5.76769 20.1936 5.81516 20.2013 5.85634 20.2251C6.05949 20.3012 6.26053 20.3828 6.46507 20.4519C6.97537 20.6251 7.49753 20.7605 8.0176 20.8994C8.35687 20.9902 8.69893 21.0732 9.03959 21.1591C9.39003 21.2471 9.73976 21.3357 10.0909 21.4202C10.5684 21.5354 11.0466 21.6477 11.5248 21.7608C11.8291 21.8327 12.1342 21.9046 12.4392 21.9738C12.715 22.0359 12.9914 22.0945 13.2679 22.1553C13.5478 22.2167 13.8277 22.2816 14.1083 22.3409C14.4015 22.4031 14.6961 22.4596 14.99 22.519C15.2288 22.5671 15.4682 22.6111 15.7063 22.6642C15.8801 22.7032 16.0553 22.7402 16.2173 22.8184C16.3946 22.9036 16.4232 23.0292 16.2961 23.1814C16.2179 23.2757 16.1258 23.3546 16.0288 23.4292C15.8438 23.5731 15.6532 23.7106 15.4801 23.869C15.2546 24.075 15.0354 24.2872 14.8902 24.5608C14.7904 24.7486 14.7262 24.9448 14.7862 25.1626C14.8281 25.3141 14.9146 25.4355 15.0221 25.5451C15.196 25.7231 15.3963 25.869 15.6008 26.0087C15.6288 26.0387 15.6748 26.0359 15.7021 26.0666C15.737 26.0833 15.7726 26.0994 15.8075 26.1169C16.063 26.2432 16.3234 26.3577 16.5872 26.4652C16.6354 26.4833 16.6794 26.5113 16.7248 26.535C17.1164 26.7298 17.464 26.9867 17.7886 27.2778C17.9694 27.4397 18.1481 27.6052 18.3464 27.7462C18.6515 27.964 18.9872 28.0966 19.3628 28.1511C19.7181 28.2027 20.0644 28.1797 20.4127 28.1141C20.5586 28.0861 20.6919 28.0219 20.8316 27.9772C20.8762 27.9521 20.9216 27.9291 20.967 27.9039C21.0242 27.8655 21.0822 27.8272 21.1394 27.7881C21.3768 27.6275 21.5813 27.4272 21.7949 27.2387C22.0357 27.0272 22.2843 26.8275 22.5642 26.6697C22.5872 26.6474 22.62 26.6411 22.6452 26.6216C22.9195 26.4694 23.2106 26.3528 23.4968 26.2272C23.8745 26.061 24.2159 25.8439 24.5083 25.5521C24.6752 25.386 24.7827 25.1961 24.7659 24.9497C24.7569 24.8163 24.7115 24.6963 24.6508 24.5804C24.5049 24.3025 24.2885 24.0833 24.0588 23.876C23.8612 23.6987 23.6455 23.5437 23.4382 23.379C23.353 23.3113 23.2707 23.2394 23.2085 23.15C23.1282 23.0341 23.1471 22.9427 23.2602 22.8589C23.3356 22.8031 23.4228 22.771 23.5094 22.7486C23.8961 22.6474 24.2892 22.5713 24.6822 22.4987C24.7513 22.4729 24.8253 22.4722 24.8958 22.4526C25.1296 22.4017 25.3621 22.3479 25.5967 22.3005C26.0406 22.2111 26.4818 22.112 26.9237 22.0114C27.115 21.9682 27.307 21.9305 27.4975 21.8865C27.76 21.8251 28.0211 21.7587 28.2829 21.6966C28.5453 21.6345 28.8085 21.5765 29.0703 21.5137C29.3537 21.4453 29.6357 21.372 29.9192 21.3022C30.2654 21.217 30.6131 21.1375 30.9593 21.0495C31.3083 20.9608 31.6553 20.8638 32.0036 20.7717C32.4323 20.6579 32.8574 20.5322 33.2727 20.3772C33.3167 20.3598 33.3621 20.3458 33.4061 20.3291C34.4588 19.9409 35.4487 19.4313 36.3666 18.7849C36.3862 18.7591 36.4176 18.7493 36.4427 18.7312C36.5132 18.6788 36.583 18.6272 36.6535 18.5748C36.6857 18.5455 36.7192 18.5176 36.7569 18.4945C36.7911 18.468 36.8253 18.4415 36.8595 18.4142C37.2567 18.0966 37.6309 17.7553 37.9659 17.3727C37.989 17.3434 38.0197 17.321 38.0413 17.2903C38.2179 17.0921 38.3799 16.8834 38.5321 16.6655C38.9426 16.0764 39.2511 15.4432 39.411 14.7388C39.4933 14.3751 39.531 14.0087 39.5234 13.6373L39.5282 13.638ZM6.94744 19.6066C6.90486 19.6108 6.86647 19.5807 6.82458 19.5717C6.61027 19.5088 6.40224 19.4299 6.2005 19.3336C6.15931 19.3085 6.11114 19.3008 6.06786 19.282C6.04203 19.2729 6.0162 19.2645 5.99038 19.2554C5.93732 19.231 5.88427 19.208 5.83191 19.1807C5.55687 19.0586 5.2895 18.921 5.02284 18.7821C4.99352 18.7542 4.94744 18.7577 4.91882 18.7284C4.90207 18.7193 4.88531 18.7109 4.86856 18.7018C4.83715 18.6767 4.79247 18.6753 4.76455 18.6446C4.75547 18.6376 4.7464 18.6306 4.73732 18.6237C4.70661 18.5978 4.66333 18.595 4.63331 18.5678C4.48811 18.4582 4.32127 18.3807 4.18025 18.2655C4.16001 18.2258 4.10765 18.2376 4.08322 18.2048L3.65809 17.8956C3.62737 17.8649 3.59247 17.8383 3.55547 17.8146C3.0347 17.3971 2.57537 16.9217 2.19352 16.3731C2.17467 16.3479 2.1628 16.3179 2.14116 16.2949C1.97292 16.0268 1.81725 15.7518 1.69579 15.4579C1.67764 15.4139 1.66018 15.3699 1.64273 15.3252C1.62458 15.2813 1.61411 15.2352 1.59317 15.1926C1.53244 15.0034 1.46333 14.8163 1.43331 14.6188C1.39561 14.4889 1.39352 14.3528 1.35931 14.223C1.3258 13.9849 1.30835 13.7469 1.30765 13.506C1.30765 13.0844 1.37188 12.6732 1.49474 12.2711C1.50381 12.2425 1.5087 12.2118 1.51498 12.1825C1.5443 12.1134 1.56036 12.0394 1.59177 11.9703C1.70975 11.6861 1.83819 11.4069 1.99387 11.1402C2.22842 10.7381 2.50207 10.3654 2.80224 10.0107C2.82528 9.98143 2.85739 9.96049 2.87554 9.92698C3.06612 9.71616 3.26228 9.51092 3.4717 9.31895C3.50032 9.29522 3.52336 9.2652 3.55338 9.24216C3.84448 8.96921 4.15652 8.7214 4.47624 8.48405C4.58025 8.40656 4.68287 8.32698 4.78619 8.2481C4.81062 8.22925 4.84133 8.21878 4.86228 8.19504C5.1436 8.00237 5.42144 7.80482 5.70695 7.61913C5.945 7.46415 6.17886 7.3001 6.43435 7.17375C6.47973 7.14932 6.5279 7.13047 6.56629 7.09557C6.59561 7.06904 6.64308 7.07462 6.66821 7.03972C6.66821 7.03972 6.66821 7.03972 6.66751 7.03972H6.66891C6.68915 7.03344 6.708 7.02436 6.72406 7.0097C6.73453 7.00621 6.7457 7.00482 6.75617 7.00482C6.77362 7.0104 6.78339 7.02157 6.78339 7.04042C6.77292 7.06066 6.75617 7.07323 6.73523 7.08091C6.71079 7.08998 6.68985 7.10464 6.67519 7.12698C6.67519 7.12698 6.67519 7.12698 6.67589 7.12698L6.67449 7.12838C6.67449 7.12838 6.67449 7.12838 6.67449 7.12768C6.63052 7.14164 6.60189 7.17724 6.56699 7.20447C6.48182 7.28893 6.37153 7.33989 6.28147 7.41738C6.25285 7.44042 6.22004 7.45857 6.19561 7.48719C6.01411 7.60866 5.84308 7.74339 5.67484 7.8823C5.6525 7.90394 5.6183 7.91023 5.60224 7.93955C4.7087 8.65787 3.89683 9.45857 3.21062 10.3793C2.80504 10.9238 2.4553 11.5025 2.21376 12.1406C2.13558 12.3472 2.05739 12.556 2.03156 12.7779C1.9806 12.9148 2.00015 13.0642 1.95826 13.2024C1.93872 13.6038 1.94989 14.0017 2.02179 14.4003C2.18374 15.2987 2.57676 16.084 3.14221 16.7926C3.49125 17.2296 3.88985 17.6149 4.32057 17.9682C4.3443 17.9877 4.36664 18.0073 4.38968 18.0275C4.39945 18.0345 4.40922 18.0422 4.4183 18.0498C4.43924 18.0638 4.4546 18.084 4.47554 18.0973C4.61935 18.2006 4.76036 18.3074 4.90695 18.4066C5.07519 18.5203 5.24832 18.6272 5.41865 18.7375C5.4361 18.7486 5.45076 18.7654 5.46681 18.78C5.50381 18.8198 5.55547 18.8352 5.60155 18.8596C5.78374 18.9573 5.96524 19.0551 6.14814 19.1521C6.17048 19.164 6.19561 19.1717 6.21935 19.1814C6.26612 19.2038 6.31149 19.2275 6.35547 19.2547C6.46018 19.3078 6.5649 19.3601 6.66961 19.4132C6.70451 19.432 6.7436 19.4411 6.77781 19.4621C6.84133 19.4816 6.90067 19.5102 6.95722 19.5444C6.99352 19.5738 7.00469 19.6024 6.94465 19.608L6.94744 19.6066ZM11.4186 20.445C11.3782 20.445 11.3412 20.4191 11.3007 20.4114L11.2902 20.4128L11.2811 20.4066C11.219 20.3577 11.138 20.3619 11.0696 20.3305C10.8825 20.2774 10.7052 20.1964 10.5244 20.1266C10.4281 20.0896 10.3324 20.0498 10.2361 20.0114C10.1865 19.9772 10.1237 19.9731 10.0741 19.9388L10.0762 19.9361C10.0211 19.9144 9.96804 19.8872 9.91428 19.8628C9.71114 19.7888 9.51847 19.691 9.3251 19.5968C9.04238 19.4593 8.76245 19.3155 8.48182 19.1744C8.43924 19.1465 8.39107 19.127 8.34779 19.0998C8.18095 19.002 8.01341 18.905 7.84657 18.8066C7.59805 18.6593 7.35442 18.5036 7.11987 18.3354C7.09334 18.3193 7.06263 18.3081 7.04378 18.2816C7.04029 18.2767 7.0368 18.2718 7.0347 18.2669C7.01376 18.2397 6.97537 18.239 6.95442 18.2125C6.7087 18.0491 6.48462 17.8572 6.26402 17.6617C5.83051 17.2771 5.44448 16.8512 5.12406 16.3675C4.91254 16.0484 4.73593 15.7113 4.6012 15.3532C4.58235 15.3092 4.58165 15.2596 4.55303 15.2198L4.44622 14.8547C4.42737 14.7849 4.42737 14.7109 4.39805 14.6439C4.28776 14.158 4.28427 13.6652 4.32545 13.1744C4.36245 12.7277 4.46437 12.2907 4.61376 11.8669C4.66263 11.728 4.71498 11.5905 4.76524 11.453C4.79736 11.4027 4.81132 11.3441 4.83854 11.291C4.91952 11.1347 4.98514 10.9706 5.07938 10.8212C5.09334 10.7926 5.11289 10.7675 5.12545 10.7381C5.29718 10.4114 5.50661 10.1099 5.7258 9.81459C5.73627 9.80063 5.74605 9.78667 5.75652 9.7727C5.77746 9.74967 5.78514 9.71686 5.81306 9.69871C6.32825 9.04391 6.91743 8.46241 7.56664 7.94094C7.58688 7.91581 7.619 7.90743 7.64134 7.8851C8.13767 7.48719 8.66821 7.13885 9.21341 6.81145C9.2532 6.77864 9.30556 6.76677 9.34395 6.73256C9.74605 6.48754 10.1621 6.26834 10.583 6.05752C10.641 6.0289 10.6989 6.00028 10.7569 5.97166C10.7897 5.94862 10.8316 5.94653 10.8637 5.92209C11.1994 5.7734 11.5303 5.61424 11.8801 5.49906C11.9241 5.48091 11.975 5.48091 12.0148 5.44949C12.0211 5.44461 12.0281 5.44321 12.0358 5.4453C12.0679 5.43414 12.1021 5.41529 12.1328 5.41529C12.1949 5.41529 12.1796 5.446 12.146 5.47532C12.0916 5.49766 12.0344 5.51441 11.989 5.5549C11.7181 5.7029 11.448 5.85159 11.1771 5.99958C11.1492 6.0289 11.1031 6.02681 11.0752 6.05682C10.8036 6.22855 10.5272 6.3919 10.2556 6.56223C9.84727 6.81843 9.45216 7.09347 9.06472 7.38108C8.26332 7.97654 7.52127 8.63693 6.86298 9.38946C6.62563 9.66101 6.40713 9.94792 6.19701 10.2411C6.17537 10.2635 6.17048 10.2977 6.14605 10.3179C5.945 10.6279 5.75652 10.9448 5.59805 11.2792C5.42493 11.645 5.28531 12.0226 5.18689 12.4156C5.06542 12.8966 5.00469 13.3846 5.03121 13.8802C5.05495 14.3326 5.17432 14.7619 5.34465 15.1814C5.49264 15.5451 5.67554 15.8886 5.88985 16.2167C5.89683 16.2265 5.90451 16.2362 5.91149 16.246C5.93383 16.2683 5.9457 16.2984 5.96524 16.3242C6.1279 16.5839 6.31778 16.824 6.51533 17.0572C6.53348 17.0907 6.5649 17.1123 6.58933 17.1402C6.98723 17.6135 7.4375 18.0317 7.91917 18.417C8.16629 18.6146 8.4183 18.8059 8.69055 18.9685C8.71359 18.9902 8.7436 19.002 8.76804 19.0209C9.05425 19.2163 9.35791 19.3825 9.66298 19.5472C10.0595 19.7608 10.4665 19.9528 10.8769 20.1378C11.0026 20.195 11.1359 20.2355 11.256 20.306C11.3097 20.35 11.3803 20.3542 11.4403 20.3835C11.485 20.4205 11.4808 20.4477 11.42 20.4477L11.4186 20.445ZM31.8354 18.7277C31.8103 18.7605 31.76 18.7507 31.7356 18.7856C31.6741 18.8198 31.612 18.8547 31.5506 18.8889C31.522 18.9176 31.4752 18.9148 31.4487 18.9469C31.1806 19.1137 30.8979 19.2533 30.6179 19.3985C30.2459 19.5919 29.8626 19.7622 29.4808 19.9354C29.4228 19.9696 29.3565 19.9828 29.2972 20.0142C29.0801 20.0994 28.8623 20.1818 28.6466 20.2704C28.5865 20.2949 28.5258 20.3144 28.4637 20.3312C28.4204 20.3465 28.375 20.3591 28.3303 20.3675C28.285 20.3758 28.2542 20.3605 28.2766 20.3053C28.6033 20.1546 28.9356 20.0156 29.2595 19.8572C29.9848 19.5018 30.6878 19.1095 31.3377 18.6265C31.8689 18.2313 32.3576 17.7895 32.8029 17.3001C33.0012 17.0823 33.1953 16.8596 33.36 16.6132C33.3872 16.5881 33.4054 16.5553 33.4291 16.5266C33.5987 16.3032 33.7391 16.0617 33.8843 15.823C33.8989 15.7943 33.9185 15.7692 33.9303 15.7399C34.0197 15.5493 34.1195 15.3643 34.1949 15.1675C34.2193 15.1263 34.227 15.0788 34.2459 15.0355C34.3492 14.7619 34.4267 14.4806 34.4707 14.1923C34.4993 14.008 34.516 13.8195 34.509 13.631C34.4944 13.2073 34.4476 12.7877 34.3352 12.3772C34.3296 12.3563 34.3268 12.3347 34.322 12.313C34.3017 12.2614 34.2905 12.2062 34.2731 12.1532C34.264 12.1273 34.2549 12.1008 34.2466 12.075C34.2249 12.0324 34.2221 11.9821 34.1991 11.9402C34.0937 11.5898 33.9345 11.2624 33.7614 10.9413C33.6727 10.7772 33.5757 10.6181 33.4822 10.4568C33.4633 10.431 33.4612 10.394 33.4284 10.3765C32.8693 9.54722 32.1963 8.81982 31.4445 8.16363C31.0654 7.83274 30.6703 7.5207 30.2633 7.22471C30.2389 7.20726 30.2124 7.1919 30.1865 7.17585C30.1642 7.15281 30.1342 7.14164 30.1097 7.12279C30.0867 7.10115 30.0546 7.09138 30.0337 7.06625C29.8319 6.91686 29.626 6.77305 29.4089 6.646C29.3837 6.62576 29.3488 6.62087 29.3286 6.59295C28.9879 6.37026 28.6417 6.15665 28.2829 5.96398C28.2612 5.93745 28.227 5.93187 28.1998 5.91441C28.0211 5.80133 27.8228 5.72174 27.6483 5.60098C27.605 5.57236 27.5604 5.54722 27.5122 5.52907C27.5122 5.52907 27.5136 5.52977 27.5143 5.53047L27.5122 5.52907C27.4626 5.49696 27.4082 5.47532 27.3551 5.45019C27.4061 5.35246 27.464 5.44461 27.5185 5.44461C27.5624 5.48579 27.6246 5.47393 27.6748 5.49766C27.9743 5.59679 28.2605 5.72873 28.5481 5.85787C28.7569 5.95141 28.96 6.05543 29.1659 6.15525C29.1939 6.16991 29.219 6.18946 29.249 6.20133C29.256 6.20482 29.263 6.20691 29.2707 6.20761C29.3139 6.23483 29.3607 6.25578 29.4054 6.28161C29.8515 6.51965 30.2919 6.76607 30.7129 7.0474C30.7394 7.06346 30.7673 7.07811 30.7925 7.09696C31.1534 7.32174 31.5017 7.56468 31.8375 7.82576C32.0734 8.00935 32.3059 8.19784 32.523 8.40447C32.553 8.42681 32.5761 8.45752 32.6047 8.48056C32.9551 8.794 33.2734 9.13815 33.575 9.49836C33.7677 9.72873 33.9408 9.97375 34.1132 10.2188C34.1405 10.239 34.1453 10.2739 34.1656 10.2984C34.2731 10.4799 34.3799 10.6614 34.4874 10.8429C34.5118 10.8882 34.5363 10.9329 34.5593 10.979C34.6836 11.2436 34.8085 11.5074 34.9035 11.7846C34.9216 11.8376 34.9398 11.8907 34.9579 11.943C34.9789 11.9947 34.9823 12.0519 35.0061 12.1029C35.1876 12.7095 35.2741 13.3287 35.2371 13.9612C35.2071 14.4813 35.0919 14.9832 34.8951 15.4683C34.5244 16.3807 33.915 17.1088 33.1834 17.7483C32.7631 18.1148 32.3038 18.4261 31.8368 18.7284L31.8354 18.7277ZM38.1935 14.1273C38.1328 14.6432 37.9925 15.1382 37.7726 15.6128C37.4138 16.387 36.8923 17.0313 36.2528 17.587C36.2235 17.6121 36.204 17.6491 36.1649 17.6631C36.1342 17.684 36.1132 17.7176 36.0804 17.7371C35.8549 17.9249 35.6232 18.1057 35.374 18.2614C35.3363 18.283 35.3014 18.3095 35.2658 18.3347C35.0647 18.4792 34.8434 18.5916 34.6361 18.7256C34.6068 18.7542 34.5628 18.7549 34.5328 18.7828C34.2494 18.9203 33.9722 19.0711 33.6832 19.1954C33.4452 19.298 33.2043 19.395 32.9649 19.4942C32.9209 19.5102 32.8748 19.5214 32.833 19.5437L32.7296 19.571C32.6808 19.5982 32.6179 19.587 32.5733 19.6268C32.5733 19.6268 32.5733 19.6268 32.574 19.6268H32.5726C32.5544 19.6352 32.5328 19.6324 32.5174 19.6477L32.5077 19.6526H32.4972C32.4637 19.6561 32.4204 19.6861 32.412 19.6205C32.463 19.5926 32.5223 19.5814 32.5705 19.5472C32.819 19.4251 33.0738 19.3148 33.3202 19.1877C34.0623 18.8045 34.7638 18.3598 35.3998 17.8153C35.4319 17.7957 35.4542 17.7643 35.4829 17.7406C35.9331 17.3566 36.3241 16.919 36.6675 16.4387C36.6829 16.4177 36.694 16.394 36.7073 16.3724C36.7282 16.3486 36.7415 16.32 36.7597 16.2942L36.7631 16.2963C36.7785 16.269 36.7932 16.2411 36.8134 16.2167C36.8218 16.1985 36.8302 16.1811 36.8385 16.1629C36.8727 16.1245 36.886 16.0729 36.9174 16.0324C37.0647 15.786 37.182 15.5263 37.2846 15.2589C37.4159 14.9155 37.5031 14.5608 37.5541 14.1978C37.6106 13.7943 37.6274 13.3888 37.5597 12.9853C37.4899 12.5671 37.3544 12.1685 37.1757 11.7832C36.7157 10.7919 36.049 9.95002 35.2965 9.17096C34.7611 8.61668 34.1796 8.11337 33.5666 7.64705C33.5429 7.6275 33.5108 7.61843 33.4919 7.5919C33.3705 7.50464 33.2581 7.40342 33.1268 7.32942C33.1059 7.31895 33.0975 7.29522 33.078 7.28335C33.0508 7.24216 32.9998 7.23379 32.9663 7.20167H32.9649C32.9412 7.15351 32.9621 7.13326 33.0075 7.14443C33.0487 7.15421 33.0843 7.18213 33.1234 7.19958C33.1234 7.19958 33.1234 7.19958 33.1234 7.19888L33.1248 7.20028C33.1248 7.20028 33.1248 7.20028 33.1241 7.20028C33.1485 7.23518 33.1967 7.2282 33.2253 7.25682C33.4228 7.35595 33.6043 7.483 33.7893 7.60377C34.2584 7.90883 34.7143 8.23344 35.1631 8.56852C35.1876 8.58806 35.2197 8.59644 35.2371 8.62436C35.8082 9.06136 36.3317 9.54862 36.796 10.098C37.2378 10.6216 37.605 11.1933 37.878 11.823C37.8919 11.8551 37.9017 11.8886 37.9136 11.9207C37.9359 11.9626 37.9352 12.0128 37.9631 12.0533C38.0448 12.2746 38.1118 12.4994 38.1502 12.7319C38.1691 12.8366 38.167 12.9448 38.1998 13.0481C38.2529 13.409 38.2368 13.7713 38.1942 14.1301L38.1935 14.1273Z" fill="currentColor"/>
</svg>
