<svg width="86" height="22" viewBox="0 0 86 22" fill="none" xmlns="http://www.w3.org/2000/svg">
<path d="M83.0133 7.06497C83.0147 7.11257 83.0175 7.15949 83.0175 7.20709C83.0175 9.72598 83.0175 12.2456 83.0175 14.7644C83.0175 14.812 83.014 14.859 83.0119 14.9066C81.757 14.9066 80.502 14.9066 79.2471 14.9066C79.2252 14.9066 79.2033 14.9059 79.1806 14.9066C79.1375 14.9066 79.1148 14.8872 79.1141 14.8445C79.1141 14.8058 79.1134 14.7672 79.1134 14.7279C79.1134 12.9382 79.1134 11.1486 79.112 9.35963C79.112 9.31065 79.1332 9.25545 79.0858 9.21337C79.0292 9.20233 79.0151 9.24993 78.9896 9.28029C78.6444 9.7039 78.2985 10.1275 77.954 10.5518C77.5572 11.0396 77.161 11.5273 76.767 12.0179C76.7203 12.0758 76.6708 12.0951 76.5986 12.0945C75.7901 12.0924 74.9815 12.0924 74.173 12.0945C74.1008 12.0945 74.0534 12.0745 74.0039 12.0186C73.6813 11.655 73.3531 11.2955 73.027 10.9347C73.0185 10.9251 73.0143 10.9126 73.0079 10.9009C72.9853 10.8712 72.9527 10.8499 72.9315 10.8188C72.6018 10.4545 72.2722 10.0909 71.9433 9.72667C71.8124 9.58178 71.6829 9.43552 71.5528 9.28995C71.5549 9.26649 71.545 9.24786 71.5294 9.232C71.511 9.21337 71.4941 9.18991 71.4636 9.1975C71.4262 9.20716 71.4233 9.23959 71.4226 9.26994C71.4212 9.30444 71.4226 9.33893 71.4226 9.37343C71.4226 11.1638 71.4226 12.9541 71.4226 14.7444C71.4226 14.9162 71.4368 14.9072 71.2592 14.9072C70.0743 14.9072 68.8894 14.9072 67.7053 14.9072C67.5383 14.9072 67.544 14.9183 67.544 14.7548C67.544 12.2352 67.544 9.71563 67.544 7.19674C67.544 7.15397 67.5475 7.1105 67.5489 7.06773C67.5885 7.06635 67.6281 7.06428 67.6678 7.06428C69.1837 7.06428 70.699 7.06497 72.2149 7.06152C72.3118 7.06152 72.3797 7.08912 72.4462 7.15328C73.6941 8.34821 74.9426 9.54246 76.1926 10.736C76.2513 10.7926 76.3001 10.8602 76.3758 10.8988C76.4041 10.9285 76.4423 10.9451 76.4727 10.972C76.4805 10.9796 76.4876 10.9885 76.4946 10.9975C76.4982 11.0016 76.501 11.0058 76.5046 11.0099C76.5116 11.0182 76.518 11.0265 76.5244 11.0347C76.5286 11.0382 76.5321 11.0423 76.5357 11.0458C76.5463 11.0541 76.5555 11.0637 76.564 11.0727C76.5809 11.0686 76.5675 11.0872 76.5696 11.0706C76.5696 11.0658 76.5626 11.061 76.5576 11.0561C76.5505 11.0499 76.5442 11.043 76.5371 11.0368C76.5307 11.0292 76.5251 11.0209 76.5201 11.0127C76.5145 11.0044 76.5095 10.9954 76.5046 10.9871C76.4989 10.9789 76.4939 10.9699 76.489 10.9609C76.4784 10.9437 76.4664 10.9271 76.4579 10.9085C76.4515 10.8947 76.4451 10.8802 76.4388 10.8664H76.4395C76.419 10.8574 76.4267 10.8305 76.4083 10.8195C76.3574 10.7105 76.2669 10.6242 76.2181 10.5132C76.199 10.4876 76.1961 10.4511 76.1643 10.4338C76.0172 10.2158 75.87 9.99642 75.7208 9.7791C75.6896 9.73357 75.6819 9.69907 75.7257 9.6556C75.8212 9.56109 75.9132 9.46174 76.0065 9.36515C76.0525 9.31479 76.1028 9.26856 76.1452 9.21544C76.472 8.86772 76.7995 8.52 77.1264 8.17228C77.1377 8.15987 77.1469 8.14469 77.1568 8.13089C77.1815 8.1026 77.2119 8.07984 77.2346 8.04948C77.4652 7.80663 77.6951 7.56378 77.9257 7.32093C78.0064 7.23607 78.0757 7.12292 78.1761 7.07808C78.2716 7.0353 78.4018 7.06428 78.5164 7.06428C80.0147 7.06428 81.5136 7.06428 83.0119 7.06497H83.0133Z" fill="currentColor"/>
<path d="M63.6982 14.9082C63.6452 14.9082 63.5921 14.9082 63.5391 14.9082C62.6244 14.9082 61.709 14.9075 60.7944 14.9075C58.6106 14.9075 56.4276 14.9082 54.2439 14.9068C53.7367 14.9068 53.2288 14.9241 52.7216 14.8827C52.6735 14.8786 52.6247 14.8841 52.5759 14.8855C52.4924 14.9158 52.4188 14.8648 52.3403 14.8579C51.9194 14.7551 51.524 14.5978 51.1816 14.3328C50.9679 14.1679 50.7734 13.9837 50.6383 13.7485C50.6114 13.7278 50.6086 13.6905 50.5845 13.6684C50.4084 13.3952 50.3115 13.0965 50.2655 12.7771C50.2351 12.5667 50.2344 12.3562 50.2344 12.1458C50.2344 11.3358 50.2344 10.5259 50.2344 9.71592C50.2344 9.39994 50.2697 9.08878 50.356 8.78384C50.3773 8.70933 50.4077 8.63758 50.4339 8.56514C50.4586 8.5334 50.4685 8.49546 50.4827 8.45889C50.7218 7.94973 51.1066 7.5827 51.6237 7.34537C51.6569 7.32329 51.6987 7.31915 51.7333 7.29845C52.1429 7.13632 52.5695 7.0625 53.0116 7.0625C56.4906 7.06319 59.9688 7.0625 63.4478 7.0625C64.0781 7.0625 64.6553 7.22946 65.1732 7.58408C65.2057 7.60615 65.2347 7.63237 65.2651 7.65652C65.3125 7.68688 65.35 7.72896 65.3953 7.76208C65.6606 8.00631 65.8565 8.29193 65.94 8.64172C65.9852 8.83145 65.9803 9.02738 65.9768 9.22125C65.9753 9.27782 65.9499 9.31025 65.8869 9.30542C65.8607 9.30335 65.8339 9.30542 65.8077 9.30542C64.5789 9.30542 63.3502 9.30542 62.1207 9.30542C62.1073 9.30542 62.0946 9.30542 62.0811 9.30542C61.917 9.30335 61.8993 9.28541 61.8923 9.1288C61.888 9.026 61.8824 8.92252 61.8406 8.82524C61.7458 8.60446 61.557 8.50718 61.3341 8.45337C61.1877 8.41819 61.0391 8.40508 60.8878 8.40508C59.0047 8.40646 57.1216 8.40646 55.2385 8.40508C54.9428 8.40508 54.6825 8.48718 54.4752 8.70105C54.2892 8.89216 54.2142 9.1288 54.2085 9.38407C54.2 9.79388 54.2057 10.2037 54.2057 10.6135C54.2057 11.2565 54.2007 11.8988 54.2078 12.5418C54.2128 12.9916 54.4858 13.3469 54.9032 13.4987C54.9237 13.5063 54.9463 13.5084 54.9676 13.5132C55.0517 13.5429 55.1388 13.5491 55.2279 13.5491C57.1697 13.5484 59.1108 13.5484 61.0526 13.5491C61.1509 13.5491 61.2464 13.5415 61.3405 13.5139C61.5166 13.4836 61.6793 13.4256 61.8152 13.3056C61.9248 13.209 61.9913 13.0896 61.9991 12.9461C62.0168 12.6232 62.0069 12.3003 62.004 11.9775C62.0033 11.8829 61.9743 11.8602 61.8781 11.8416C61.7904 11.8243 61.702 11.8298 61.6143 11.8291C60.5991 11.8202 59.584 11.8064 58.5689 11.8091C58.3128 11.8091 58.0928 11.7484 57.8948 11.5987C57.8665 11.5773 57.836 11.5608 57.8063 11.5428C57.7844 11.5194 57.7547 11.5076 57.7278 11.4918H57.7271C57.7165 11.4731 57.6882 11.4793 57.6783 11.46C57.4166 11.2834 57.1548 11.1068 56.8846 10.9419C56.8606 10.9205 56.8238 10.9164 56.8047 10.8881C56.6519 10.7867 56.4998 10.6853 56.347 10.5838C56.3067 10.5569 56.2678 10.5293 56.2274 10.5031C56.1977 10.4838 56.1885 10.4576 56.1956 10.4252C56.2041 10.39 56.2338 10.3789 56.2649 10.3755C56.2996 10.372 56.3357 10.372 56.371 10.372C59.2395 10.372 62.108 10.372 64.9765 10.372C65.1491 10.372 65.3203 10.3803 65.4879 10.4279C65.7617 10.5059 65.9584 10.7094 65.9661 10.9778C65.969 11.0764 65.9789 11.1758 65.9775 11.2744C65.9711 11.796 65.9888 12.3183 65.9647 12.8399C65.9463 13.2379 65.8523 13.6133 65.6436 13.9589C65.4667 14.2521 65.2227 14.4743 64.9143 14.6316C64.8711 14.6536 64.8294 14.6771 64.7869 14.7006C64.7261 14.7316 64.6561 14.7392 64.5973 14.7758C64.4891 14.7896 64.3894 14.8337 64.284 14.8579C64.1389 14.853 64.001 14.9006 63.8574 14.9062C63.8051 14.9068 63.752 14.9075 63.6997 14.9082H63.6982Z" fill="currentColor"/>
<path d="M50.3519 14.8567C50.3476 14.885 50.3356 14.9057 50.3024 14.9064C50.2627 14.9071 50.2231 14.9078 50.1835 14.9078C48.8062 14.9078 47.4289 14.9078 46.0516 14.9078C46.0339 14.9078 46.0162 14.9092 45.9986 14.9105C45.9398 14.8836 45.8769 14.9036 45.8168 14.8974C45.7665 14.9002 45.7248 14.8754 45.6802 14.8588C45.4723 14.7608 45.2813 14.6318 45.0811 14.52C45.0507 14.5035 45.0202 14.4869 44.9898 14.4704C44.9636 14.4379 44.9155 14.4421 44.888 14.4124C44.8413 14.3814 44.7946 14.3503 44.7472 14.32C44.7245 14.2965 44.6878 14.2931 44.6651 14.2689C44.4762 14.1709 44.298 14.0571 44.1162 13.9481C44.0921 13.9267 44.0589 13.9212 44.0355 13.8998C43.9634 13.8701 43.9068 13.8122 43.8297 13.7915C43.8071 13.7667 43.7703 13.7618 43.7469 13.7391C43.7448 13.7342 43.742 13.7294 43.7391 13.7246C43.72 13.6949 43.6833 13.6915 43.6578 13.6721C43.4102 13.5431 43.1746 13.3927 42.9341 13.2513C42.8216 13.1857 42.7106 13.1174 42.5988 13.0505C42.579 13.0215 42.5429 13.0174 42.5161 12.9995C42.4474 12.9629 42.3795 12.9263 42.3109 12.8898C42.2833 12.8594 42.2359 12.8622 42.2076 12.8318C42.0287 12.7235 41.8497 12.6145 41.67 12.5076C41.4486 12.3758 41.2279 12.244 41.0043 12.1164C40.8148 12.0087 40.6061 11.9418 40.3896 11.9391C39.7141 11.9315 39.0385 11.9377 38.3629 11.9384C38.3078 11.9763 38.3332 12.0329 38.3332 12.0805C38.3311 12.8132 38.3318 13.5466 38.3318 14.2793C38.3318 14.4517 38.3332 14.6242 38.3318 14.7967C38.3304 14.8919 38.3205 14.9009 38.2271 14.905C38.1917 14.9064 38.1564 14.905 38.121 14.905C36.8838 14.905 35.6472 14.9064 34.41 14.9064C34.3966 14.9016 34.3867 14.8919 34.3782 14.8809H34.3803C34.3803 12.3351 34.3803 9.7886 34.381 7.24281C34.381 7.18347 34.3676 7.12138 34.4051 7.06619C35.0636 7.0655 35.7222 7.06412 36.3815 7.06412C36.9786 7.06412 37.5749 7.06412 38.1719 7.06412C38.1981 7.06412 38.225 7.06412 38.2512 7.06412C38.3495 7.06688 38.3509 7.06688 38.3509 7.1683C38.3509 7.71195 38.3509 8.25561 38.3509 8.79926C38.3509 9.17457 38.3509 9.54989 38.3509 9.9252C38.3509 10.0473 38.3523 10.0487 38.4726 10.0487C39.0604 10.0487 39.6483 10.0473 40.2368 10.0494C40.5643 10.0508 40.8636 9.96591 41.138 9.79343C41.2378 9.73064 41.3382 9.66993 41.4387 9.60784C41.4656 9.5768 41.5137 9.58024 41.5406 9.5492C41.8115 9.3919 42.0831 9.23598 42.3534 9.0773C42.7509 8.84341 43.1478 8.60815 43.5446 8.37289C43.5672 8.35978 43.5878 8.34391 43.6097 8.32874C43.638 8.31425 43.6649 8.29838 43.691 8.28044C43.8856 8.16798 44.0801 8.05622 44.2753 7.94376C44.2987 7.92237 44.3326 7.91685 44.3553 7.89478C44.3723 7.88512 44.3899 7.87546 44.4069 7.8658C44.431 7.84579 44.4642 7.83889 44.4876 7.81682C44.7005 7.68849 44.9134 7.55948 45.1263 7.43115C45.1539 7.40218 45.202 7.40563 45.2282 7.3732C45.3039 7.32974 45.3803 7.28765 45.4553 7.24212C45.6505 7.12345 45.8578 7.05791 46.0919 7.0586C47.5018 7.06205 48.9116 7.05998 50.3208 7.06067C50.3505 7.06067 50.3823 7.05308 50.4099 7.0724C50.4155 7.10758 50.3837 7.1131 50.3646 7.12552C49.6516 7.58225 48.9371 8.03759 48.2247 8.49432C47.6956 8.83375 47.1686 9.17595 46.6402 9.51608C46.4089 9.6651 46.1761 9.81206 45.9441 9.96039C45.9335 9.97902 45.9059 9.97212 45.896 9.99143H45.8946C45.867 10.0066 45.838 10.019 45.8161 10.0425C45.4914 10.2488 45.1638 10.4509 44.8448 10.6648C44.7514 10.7276 44.675 10.7255 44.5767 10.6951C44.2746 10.602 43.9698 10.5158 43.6663 10.4275C43.6005 10.3937 43.5269 10.3895 43.4562 10.3743C43.4328 10.3667 43.4109 10.3543 43.3869 10.3488C43.3699 10.3447 43.3656 10.3612 43.3826 10.3557C43.3996 10.3502 43.384 10.3799 43.3918 10.364C43.4222 10.3847 43.4583 10.3978 43.4753 10.4323C43.783 10.631 44.0907 10.8297 44.3977 11.0291C44.5958 11.1574 44.7925 11.2871 44.9898 11.4161C45.0125 11.4389 45.0464 11.4444 45.069 11.4658C45.0867 11.4754 45.1037 11.4844 45.1214 11.4941C45.149 11.5093 45.1787 11.5217 45.1999 11.5458C45.4397 11.701 45.6788 11.8563 45.9186 12.0122C45.9455 12.0281 45.9745 12.0405 45.9971 12.0626C46.0941 12.124 46.1917 12.1854 46.2886 12.2468C46.3098 12.2592 46.3261 12.2792 46.3487 12.2902C46.6444 12.4655 46.9288 12.6573 47.2174 12.8429C47.24 12.8642 47.274 12.8684 47.2952 12.8925C47.3419 12.9243 47.3893 12.956 47.436 12.9877C47.4579 13.0133 47.4961 13.0153 47.518 13.0409C47.7494 13.1706 47.9651 13.3237 48.1894 13.4638C48.2559 13.5052 48.3202 13.5493 48.386 13.5921C48.4263 13.6107 48.4539 13.648 48.4957 13.6645C48.8289 13.8764 49.162 14.0882 49.4952 14.3C49.5207 14.3165 49.5483 14.3296 49.5744 14.3448C49.595 14.3717 49.6332 14.3738 49.6558 14.3979C49.7089 14.4317 49.7612 14.4662 49.8143 14.5C49.8383 14.509 49.8532 14.5304 49.8758 14.5421C49.9289 14.5773 49.9826 14.6118 50.0357 14.647C50.0548 14.6746 50.0916 14.6773 50.1149 14.6994C50.197 14.7477 50.2783 14.796 50.3519 14.856V14.8567Z" fill="currentColor"/>
<path d="M44.9399 12.8227C45.0025 12.8028 45.0838 12.7916 45.1826 12.7891C45.1288 12.8131 45.0425 12.8214 44.9399 12.8227Z" fill="currentColor"/>
<path d="M27.8642 9.37544C27.8583 9.0774 27.8041 8.78656 27.7195 8.501C27.7028 8.47173 27.6983 8.43861 27.688 8.4079C27.628 8.22264 27.5512 8.04363 27.4616 7.87038C27.4425 7.84062 27.4287 7.80798 27.409 7.77871C27.2924 7.54162 27.1393 7.32613 26.9848 7.11209C26.9656 7.08857 26.945 7.06649 26.9292 7.04058C26.9085 7.01466 26.8889 6.98826 26.8677 6.96283C26.7019 6.76366 26.5336 6.5664 26.3421 6.38979C26.3254 6.38067 26.317 6.36387 26.3043 6.3514C26.288 6.33172 26.2644 6.31924 26.2486 6.29908C26.2344 6.28373 26.2206 6.26741 26.2053 6.25301C26.0513 6.10807 25.8914 5.96985 25.727 5.83595C25.7039 5.81627 25.6798 5.79804 25.6552 5.7798C25.5174 5.66654 25.3732 5.56191 25.2281 5.45825C25.2138 5.44097 25.1921 5.43329 25.1744 5.42129C24.953 5.26819 24.7286 5.11942 24.4924 4.98743C24.4727 4.9668 24.4402 4.96872 24.4205 4.9476C24.2965 4.86745 24.1656 4.79882 24.0333 4.73307C24.0008 4.71723 23.9683 4.70188 23.9378 4.68316C23.7036 4.5627 23.4644 4.45279 23.2184 4.35729C23.1893 4.34097 23.1529 4.34241 23.1254 4.32273C23.0437 4.29825 22.9625 4.27186 22.8803 4.25026C22.8035 4.2301 22.7253 4.21283 22.6446 4.21763C22.5339 4.22483 22.4581 4.27954 22.5211 4.41824C22.5344 4.44799 22.5668 4.47583 22.5476 4.52142C22.4197 4.45231 22.2991 4.37696 22.1692 4.31889C22.1367 4.30305 22.1043 4.2877 22.0738 4.2685C21.9753 4.20851 21.8705 4.16051 21.7667 4.11156C21.5807 4.02373 21.3932 3.93927 21.2067 3.85336C21.1777 3.83752 21.1432 3.83368 21.1147 3.81688C21.0965 3.81065 21.0783 3.80441 21.0601 3.79769C21.0261 3.77321 20.9818 3.77081 20.9469 3.74825C20.5931 3.60572 20.2343 3.47757 19.8687 3.36815C19.7132 3.3216 19.5567 3.27936 19.3948 3.25729C19.2723 3.24097 19.1498 3.23137 19.0267 3.24433C18.8624 3.26209 18.791 3.3312 18.8653 3.48909C18.855 3.50829 18.9278 3.53517 18.8594 3.54908C18.6454 3.45742 18.4308 3.36575 18.2168 3.27456C18.1907 3.25201 18.1543 3.25393 18.1252 3.23905C18.1051 3.23233 18.0844 3.22705 18.0647 3.21889C17.7414 3.08451 17.4097 2.97365 17.0736 2.87526C16.9777 2.84695 16.8822 2.81095 16.7799 2.80567C16.6883 2.77832 16.5909 2.78168 16.4994 2.75528C16.4881 2.75384 16.4762 2.75288 16.4649 2.75144C16.3404 2.75144 16.2159 2.75144 16.0909 2.75096C16.0796 2.7524 16.0688 2.75384 16.0575 2.75528C15.9768 2.81479 15.9748 2.82295 16.0235 2.91318C16.0786 2.96885 16.1357 3.0226 16.2007 3.06771C16.4723 3.25585 16.7597 3.41998 17.0372 3.599C17.052 3.61531 17.0756 3.61867 17.0914 3.63403C17.269 3.75593 17.4466 3.87736 17.6243 3.99926C17.6317 4.00358 17.6381 4.00886 17.6445 4.01462C17.6612 4.02853 17.6833 4.03573 17.6986 4.05205C17.7798 4.11108 17.8615 4.17011 17.9427 4.22866C17.956 4.2469 17.9791 4.25266 17.9948 4.26706C18.1415 4.38416 18.2906 4.49839 18.4348 4.61837C18.7728 4.89961 19.0897 5.20244 19.3879 5.52352C19.7029 5.86187 19.9976 6.21558 20.2599 6.59472C20.3421 6.71326 20.4228 6.83277 20.504 6.95131C20.5296 6.97723 20.5375 7.0137 20.5601 7.04106C20.6034 7.1188 20.6467 7.19655 20.69 7.2743C20.7092 7.29494 20.7062 7.32661 20.7289 7.34581C20.8839 7.61649 21.0143 7.89821 21.1157 8.19241C21.1299 8.22216 21.1309 8.25624 21.1491 8.28455C21.1737 8.36134 21.1998 8.43813 21.2219 8.5154C21.2874 8.74337 21.3297 8.97565 21.3553 9.2113C21.3725 9.36968 21.3691 9.52853 21.3711 9.68691C21.3573 9.71811 21.3666 9.75122 21.3637 9.7829C21.3524 9.9144 21.3514 10.0464 21.3199 10.1755C21.3066 10.2974 21.2785 10.4174 21.25 10.5359C21.1973 10.7562 21.1245 10.9712 21.0384 11.1819C21.0246 11.2054 21.0202 11.2332 21.0059 11.2568C20.8489 11.61 20.6506 11.9392 20.41 12.2445C20.4066 12.2526 20.4007 12.2584 20.3938 12.2637C20.3864 12.28 20.3711 12.2896 20.3598 12.3025C20.3529 12.3126 20.347 12.3232 20.3396 12.3323C20.1167 12.5996 19.8697 12.8444 19.5946 13.0608C19.2644 13.3209 18.9077 13.5393 18.5194 13.7082C18.3265 13.7922 18.1292 13.8647 17.9309 13.9343C17.6745 14.024 17.4147 14.1027 17.1524 14.1733C16.9929 14.2165 16.833 14.2563 16.6711 14.2918C16.5161 14.3259 16.3621 14.3648 16.2051 14.3917C16.1564 14.4094 16.1042 14.4099 16.0545 14.4233C15.9315 14.4454 15.808 14.4685 15.685 14.4896C15.4921 14.5227 15.2992 14.5529 15.1068 14.5875C14.9355 14.6182 14.778 14.6791 14.653 14.8039C14.498 14.958 14.4493 15.2459 14.5822 15.4125C14.6004 15.4312 14.6201 15.448 14.6373 15.4682C14.7943 15.6068 14.967 15.7259 15.1338 15.8526C15.2937 15.9735 15.4512 16.0978 15.5728 16.2586C15.6692 16.3863 15.7425 16.5254 15.7558 16.6833C15.7839 17.0058 15.6918 17.2924 15.4616 17.5323C15.25 17.7526 14.9823 17.8803 14.6944 17.971C14.5044 18.0305 14.3096 18.0684 14.1108 18.0924C13.9277 18.1145 13.7496 18.0948 13.5705 18.0655C13.4371 18.0439 13.3077 18.0079 13.1778 17.9724C13.1286 17.9542 13.0759 17.9446 13.0292 17.9196C12.8904 17.8649 12.7551 17.802 12.6315 17.7185C12.2999 17.4944 12.1129 17.1911 12.1099 16.7918C12.1089 16.6785 12.1198 16.5643 12.1783 16.4611C12.1921 16.4376 12.1965 16.4098 12.2147 16.3882V16.3891C12.227 16.3805 12.2226 16.3627 12.2354 16.3551V16.3541C12.2467 16.3354 12.2566 16.3162 12.2718 16.2999C12.291 16.2548 12.3265 16.2207 12.3584 16.1847C12.4918 16.0349 12.6522 15.915 12.8136 15.7959C12.9504 15.6947 13.0897 15.5973 13.2152 15.4825C13.3771 15.3352 13.4095 15.1418 13.3146 14.945C13.2624 14.837 13.1792 14.7627 13.0833 14.6964C13.0498 14.671 13.01 14.659 12.9721 14.6427C12.9342 14.6316 12.8963 14.6196 12.8579 14.6105C12.7034 14.574 12.5459 14.5496 12.3889 14.5256C12.1956 14.4958 12.0036 14.4579 11.8112 14.4233C11.7679 14.4094 11.7217 14.4085 11.6784 14.3931C11.6513 14.3888 11.6247 14.384 11.5977 14.3801C11.4894 14.3658 11.3871 14.325 11.2783 14.3149C11.2335 14.3062 11.1873 14.3019 11.1449 14.2832C11.0706 14.265 10.9958 14.2477 10.922 14.2275C10.7129 14.1704 10.5023 14.1176 10.2951 14.0533C10.0623 13.9808 9.83107 13.9031 9.6047 13.8134C9.44379 13.749 9.27993 13.6905 9.13033 13.6012C9.09539 13.5791 9.05357 13.5691 9.0201 13.5441C8.9143 13.5028 8.82524 13.4328 8.72485 13.3819C8.7091 13.3665 8.68843 13.3584 8.67023 13.3469C8.47585 13.2163 8.28689 13.0786 8.11023 12.925C7.87403 12.7201 7.65554 12.4983 7.46707 12.2497C7.45772 12.2353 7.44246 12.2253 7.4341 12.2099C7.4277 12.2041 7.4218 12.1984 7.41737 12.1907C7.1477 11.8365 6.9302 11.4545 6.77519 11.0394C6.61133 10.6002 6.51488 10.1486 6.50503 9.68019C6.50159 9.50934 6.50749 9.33848 6.51291 9.16763C6.53358 9.0654 6.53259 8.95934 6.56359 8.85855C6.58918 8.75105 6.61329 8.64258 6.64085 8.53556C6.6935 8.33255 6.77027 8.1377 6.84458 7.94188C6.85934 7.91837 6.8618 7.89005 6.87804 7.8675C7.01041 7.56274 7.16985 7.2719 7.34503 6.98922C7.54876 6.65999 7.77758 6.34708 8.02215 6.04568C8.04084 6.03272 8.04577 6.00969 8.0625 5.99529C8.33167 5.67469 8.61511 5.36706 8.91972 5.07766C9.06193 4.9428 9.21005 4.81322 9.35522 4.68124C9.3936 4.65244 9.42362 4.61501 9.46397 4.58909C9.77546 4.33857 10.0933 4.0962 10.425 3.87112C10.6258 3.73482 10.8251 3.5966 11.0342 3.47325C11.0505 3.45838 11.0701 3.44926 11.0893 3.4387C11.2611 3.3288 11.4328 3.21937 11.6046 3.10947C11.6223 3.10419 11.6316 3.08787 11.6459 3.07875C11.7182 3.03508 11.7832 2.98181 11.8363 2.91702C11.9018 2.83783 11.8885 2.79031 11.7916 2.75C11.6552 2.75 11.5189 2.75 11.3826 2.75C11.1774 2.77016 10.9786 2.82103 10.7813 2.87718C10.4728 2.96501 10.1721 3.07491 9.87142 3.18482C9.8414 3.19921 9.80794 3.20545 9.77792 3.21985C9.6426 3.27552 9.50678 3.33024 9.37195 3.38687C9.23957 3.44254 9.11311 3.51261 8.95564 3.563C8.97975 3.52413 8.99304 3.50493 9.00386 3.48429C9.0703 3.35999 9.0452 3.28416 8.89364 3.24673C8.82228 3.22945 8.74699 3.23473 8.67318 3.23665C8.40598 3.24337 8.15304 3.31824 7.90109 3.39455C7.69983 3.4555 7.50299 3.52989 7.30419 3.59852C7.27466 3.61339 7.24218 3.62107 7.21069 3.63259L6.93512 3.74394C6.90117 3.76985 6.85639 3.77129 6.82145 3.79433C6.81259 3.79577 6.80226 3.79529 6.79438 3.79865C6.33871 3.99494 5.88845 4.20083 5.45787 4.44703C5.40768 4.47583 5.35502 4.50031 5.30335 4.52718C5.32402 4.46383 5.35158 4.41104 5.36388 4.35249C5.37618 4.2925 5.34961 4.24786 5.29154 4.22435C5.26202 4.21235 5.23151 4.21235 5.201 4.21235C5.09864 4.21235 5.00121 4.23922 4.90427 4.26754C4.85703 4.29154 4.8029 4.29634 4.75516 4.31841C4.73745 4.32225 4.71826 4.32369 4.70153 4.33041C4.32705 4.47871 3.96388 4.65004 3.61302 4.84538C3.59285 4.85401 3.57464 4.86553 3.55644 4.87801C3.34238 4.99655 3.13225 5.12134 2.93001 5.25764C2.9118 5.26963 2.89113 5.27827 2.87489 5.29315L2.76417 5.36562C2.74596 5.37762 2.72431 5.38482 2.71053 5.40305C2.4512 5.58255 2.20221 5.775 1.96207 5.97849C1.7795 6.13303 1.60973 6.301 1.43651 6.46514C1.41978 6.4853 1.4001 6.50257 1.3814 6.52081C1.37845 6.52609 1.37648 6.53233 1.37254 6.53665C1.1511 6.76462 0.948853 7.00842 0.767272 7.26806C0.459716 7.70768 0.218593 8.17801 0.0940941 8.70017C0.0330751 8.95502 -0.00530799 9.21322 0.000597084 9.47478C0.00847051 9.82369 0.0709659 10.1635 0.191528 10.4937C0.304216 10.8027 0.454304 11.0917 0.64179 11.3628C0.653108 11.3806 0.661473 11.4003 0.678204 11.4147C0.736271 11.5092 0.806639 11.5956 0.876516 11.682C1.15947 12.0323 1.48474 12.3419 1.83953 12.6226C2.00094 12.7503 2.16677 12.8722 2.33999 12.9836C2.35475 12.9994 2.37493 13.008 2.39363 13.0191C2.40593 13.0258 2.41774 13.0325 2.43004 13.0392C2.44727 13.0531 2.46843 13.0613 2.48516 13.0752C2.71595 13.2331 2.96248 13.3661 3.21148 13.4942C3.47967 13.6324 3.75573 13.7538 4.03573 13.8685C4.06575 13.8825 4.09921 13.8877 4.12824 13.9041C4.27144 13.9564 4.41316 14.0125 4.55734 14.06C4.91706 14.1791 5.28515 14.2722 5.65175 14.3677C5.89091 14.4301 6.13203 14.4872 6.37217 14.5462C6.6192 14.6067 6.86574 14.6676 7.11326 14.7257C7.44985 14.8049 7.78693 14.8822 8.12401 14.9599C8.33856 15.0093 8.5536 15.0588 8.76865 15.1063C8.96302 15.149 9.15789 15.1893 9.35276 15.2311C9.55008 15.2733 9.74741 15.3179 9.94523 15.3587C10.1519 15.4014 10.3596 15.4403 10.5667 15.4811C10.735 15.5142 10.9038 15.5445 11.0716 15.5809C11.1942 15.6078 11.3177 15.6332 11.4318 15.687C11.5568 15.7455 11.577 15.8319 11.4874 15.9366C11.4323 16.0014 11.3674 16.0556 11.299 16.1069C11.1686 16.2058 11.0342 16.3003 10.9122 16.4093C10.7532 16.5509 10.5987 16.6968 10.4964 16.8849C10.426 17.014 10.3807 17.1489 10.423 17.2986C10.4526 17.4027 10.5136 17.4863 10.5894 17.5616C10.7119 17.684 10.8531 17.7843 10.9973 17.8803C11.017 17.9009 11.0495 17.899 11.0687 17.9201C11.0933 17.9316 11.1184 17.9427 11.143 17.9547C11.3231 18.0415 11.5066 18.1202 11.6926 18.1942C11.7266 18.2066 11.7576 18.2258 11.7896 18.2421C12.0656 18.376 12.3107 18.5527 12.5395 18.7528C12.667 18.8641 12.793 18.9779 12.9327 19.0748C13.1477 19.2246 13.3844 19.3158 13.6492 19.3532C13.8997 19.3887 14.1437 19.3729 14.3893 19.3277C14.4921 19.3085 14.5861 19.2644 14.6845 19.2337C14.716 19.2164 14.748 19.2006 14.78 19.1833C14.8204 19.1569 14.8612 19.1305 14.9016 19.1036C15.0689 18.9932 15.213 18.8555 15.3636 18.7259C15.5334 18.5805 15.7086 18.4432 15.9059 18.3348C15.9221 18.3194 15.9453 18.3151 15.963 18.3017C16.1564 18.197 16.3616 18.1169 16.5633 18.0305C16.8296 17.9163 17.0702 17.767 17.2764 17.5664C17.394 17.4522 17.4698 17.3216 17.458 17.1522C17.4516 17.0606 17.4196 16.978 17.3768 16.8983C17.2739 16.7073 17.1214 16.5566 16.9595 16.4141C16.8202 16.2922 16.6682 16.1856 16.522 16.0724C16.462 16.0258 16.4039 15.9764 16.3601 15.915C16.3035 15.8353 16.3168 15.7724 16.3965 15.7148C16.4497 15.6764 16.5112 15.6544 16.5722 15.639C16.8448 15.5694 17.1219 15.5171 17.3989 15.4672C17.4476 15.4494 17.4998 15.449 17.5495 15.4355C17.7143 15.4005 17.8782 15.3635 18.0435 15.3309C18.3565 15.2695 18.6675 15.2013 18.979 15.1322C19.1138 15.1024 19.2492 15.0765 19.3835 15.0463C19.5685 15.0041 19.7526 14.9585 19.9371 14.9158C20.1221 14.873 20.3076 14.8332 20.4922 14.79C20.692 14.743 20.8908 14.6926 21.0906 14.6446C21.3346 14.586 21.5797 14.5313 21.8238 14.4709C22.0698 14.4099 22.3144 14.3432 22.5599 14.2798C22.8621 14.2016 23.1618 14.1152 23.4546 14.0087C23.4856 13.9967 23.5175 13.9871 23.5485 13.9756C24.2906 13.7087 24.9884 13.3584 25.6355 12.914C25.6493 12.8962 25.6714 12.8895 25.6891 12.877C25.7388 12.841 25.788 12.8055 25.8377 12.7695C25.8604 12.7493 25.884 12.7301 25.9106 12.7143C25.9347 12.6961 25.9588 12.6778 25.9829 12.6591C26.2629 12.4408 26.5267 12.2061 26.7629 11.9431C26.7791 11.9229 26.8008 11.9075 26.816 11.8864C26.9405 11.7501 27.0547 11.6066 27.162 11.4569C27.4513 11.0518 27.6688 10.6165 27.7815 10.1323C27.8396 9.88224 27.8661 9.63028 27.8607 9.37496L27.8642 9.37544ZM4.89738 13.4788C4.86736 13.4817 4.8403 13.4611 4.81077 13.4548C4.6597 13.4116 4.51306 13.3574 4.37084 13.2912C4.34181 13.2739 4.30786 13.2686 4.27735 13.2557C4.25914 13.2494 4.24093 13.2437 4.22272 13.2374C4.18533 13.2206 4.14793 13.2048 4.11102 13.1861C3.91714 13.1021 3.72867 13.0075 3.54069 12.912C3.52002 12.8928 3.48754 12.8952 3.46737 12.8751C3.45556 12.8688 3.44375 12.8631 3.43194 12.8569C3.40979 12.8396 3.3783 12.8386 3.35861 12.8175C3.35222 12.8127 3.34582 12.8079 3.33942 12.8031C3.31777 12.7853 3.28726 12.7834 3.2661 12.7647C3.16375 12.6894 3.04614 12.6361 2.94674 12.5569C2.93247 12.5295 2.89556 12.5377 2.87834 12.5151L2.57865 12.3025C2.557 12.2814 2.5324 12.2632 2.50632 12.2469C2.13922 11.9599 1.81542 11.633 1.54625 11.2558C1.53296 11.2385 1.5246 11.2179 1.50934 11.2021C1.39075 11.0178 1.28101 10.8287 1.19539 10.6266C1.1826 10.5964 1.17029 10.5661 1.15799 10.5354C1.1452 10.5052 1.13782 10.4735 1.12305 10.4442C1.08024 10.3142 1.03152 10.1856 1.01036 10.0497C0.983792 9.96047 0.982316 9.86689 0.958203 9.77762C0.934583 9.61396 0.92228 9.45031 0.921788 9.28473C0.921788 8.99485 0.967061 8.71217 1.05367 8.43573C1.06007 8.41606 1.06351 8.39494 1.06794 8.37478C1.08861 8.32727 1.09992 8.2764 1.12207 8.22888C1.20523 8.03355 1.29578 7.84158 1.40551 7.65825C1.57085 7.38181 1.76375 7.12552 1.97535 6.88172C1.99159 6.86156 2.01423 6.84716 2.02702 6.82413C2.16136 6.67919 2.29964 6.53809 2.44727 6.40611C2.46744 6.38979 2.48368 6.36915 2.50484 6.35332C2.71004 6.16566 2.93001 5.99529 3.15538 5.83211C3.2287 5.77884 3.30104 5.72413 3.37387 5.6699C3.39109 5.65694 3.41274 5.64974 3.42751 5.63342C3.62582 5.50096 3.82167 5.36514 4.02294 5.23748C4.19074 5.13093 4.35559 5.01815 4.53569 4.93128C4.56768 4.91449 4.60163 4.90153 4.6287 4.87753C4.64937 4.85929 4.68283 4.86313 4.70054 4.83914C4.70054 4.83914 4.70054 4.83914 4.70005 4.83914H4.70103C4.71531 4.83482 4.72859 4.82858 4.73991 4.8185C4.74729 4.8161 4.75516 4.81514 4.76255 4.81514C4.77485 4.81898 4.78174 4.82666 4.78174 4.83962C4.77436 4.85353 4.76255 4.86217 4.74778 4.86745C4.73056 4.87369 4.7158 4.88377 4.70546 4.89913C4.70546 4.89913 4.70546 4.89913 4.70596 4.89913L4.70497 4.90009C4.70497 4.90009 4.70497 4.90009 4.70497 4.89961C4.67397 4.90921 4.65379 4.93368 4.62919 4.9524C4.56915 5.01047 4.4914 5.04551 4.42793 5.09878C4.40775 5.11462 4.38462 5.12709 4.3674 5.14677C4.23945 5.23028 4.11889 5.32291 4.0003 5.41841C3.98455 5.43329 3.96044 5.43761 3.94912 5.45777C3.31925 5.95161 2.74695 6.50209 2.26322 7.13512C1.97732 7.50947 1.73078 7.90733 1.56052 8.34599C1.50541 8.48805 1.45029 8.63154 1.43209 8.78416C1.39616 8.87823 1.40994 8.98093 1.38042 9.07596C1.36664 9.35192 1.37451 9.62548 1.4252 9.89952C1.53936 10.5172 1.81641 11.0571 2.215 11.5442C2.46104 11.8447 2.74203 12.1096 3.04565 12.3524C3.06238 12.3659 3.07812 12.3793 3.09436 12.3932C3.10125 12.398 3.10814 12.4033 3.11454 12.4086C3.1293 12.4182 3.14013 12.4321 3.15489 12.4412C3.25626 12.5123 3.35566 12.5857 3.459 12.6538C3.57759 12.7321 3.69963 12.8055 3.8197 12.8813C3.832 12.889 3.84234 12.9005 3.85366 12.9106C3.87974 12.938 3.91615 12.9485 3.94863 12.9653C4.07707 13.0325 4.20501 13.0997 4.33394 13.1664C4.34968 13.1746 4.3674 13.1798 4.38413 13.1866C4.4171 13.2019 4.44908 13.2182 4.48009 13.237C4.5539 13.2734 4.62771 13.3094 4.70153 13.3459C4.72613 13.3589 4.75369 13.3651 4.7778 13.3795C4.82258 13.3929 4.86441 13.4126 4.90427 13.4361C4.92986 13.4563 4.93773 13.476 4.89541 13.4798L4.89738 13.4788ZM8.04921 14.0552C8.02067 14.0552 7.99459 14.0375 7.96605 14.0322L7.95867 14.0332L7.95227 14.0288C7.90847 13.9952 7.85139 13.9981 7.80317 13.9765C7.67129 13.9401 7.5463 13.8844 7.41884 13.8364C7.35094 13.811 7.28352 13.7836 7.21561 13.7572C7.18067 13.7337 7.13638 13.7308 7.10145 13.7073L7.10292 13.7054C7.06405 13.6905 7.02665 13.6718 6.98876 13.655C6.84556 13.6041 6.70974 13.5369 6.57343 13.4721C6.37414 13.3776 6.17681 13.2787 5.97899 13.1818C5.94897 13.1626 5.91502 13.1491 5.88451 13.1304C5.7669 13.0632 5.6488 12.9965 5.53119 12.9288C5.35601 12.8276 5.18427 12.7206 5.01892 12.6049C5.00023 12.5938 4.97857 12.5862 4.96529 12.5679C4.96283 12.5646 4.96037 12.5612 4.95889 12.5579C4.94413 12.5391 4.91706 12.5387 4.9023 12.5204C4.72908 12.4081 4.57112 12.2761 4.41562 12.1418C4.11004 11.8773 3.83791 11.5846 3.61204 11.252C3.46294 11.0326 3.33844 10.8008 3.24347 10.5546C3.23018 10.5244 3.22969 10.4903 3.20951 10.463L3.13422 10.212C3.12094 10.164 3.12094 10.1131 3.10027 10.067C3.02252 9.73298 3.02006 9.39415 3.04909 9.05676C3.07517 8.74961 3.14702 8.44917 3.25232 8.15785C3.28677 8.06235 3.32368 7.9678 3.35911 7.87325C3.38174 7.8387 3.39158 7.79839 3.41078 7.76191C3.46786 7.65441 3.51411 7.54162 3.58055 7.43892C3.59039 7.41924 3.60417 7.40196 3.61302 7.38181C3.73408 7.1572 3.88171 6.94987 4.03622 6.74686C4.0436 6.73726 4.05049 6.72766 4.05787 6.71806C4.07264 6.70223 4.07805 6.67967 4.09773 6.66719C4.4609 6.21702 4.87622 5.81723 5.33386 5.45873C5.34813 5.44145 5.37077 5.43569 5.38652 5.42033C5.73639 5.14677 6.11038 4.90729 6.4947 4.6822C6.52275 4.65964 6.55966 4.65148 6.58672 4.62797C6.87016 4.45951 7.16345 4.30881 7.46018 4.16387C7.50102 4.1442 7.54187 4.12452 7.58271 4.10484C7.60584 4.08901 7.63536 4.08757 7.658 4.07077C7.89469 3.96854 8.12794 3.85912 8.37448 3.77993C8.40548 3.76745 8.44141 3.76745 8.46945 3.74586C8.47388 3.7425 8.4788 3.74154 8.48422 3.74298C8.50685 3.7353 8.53097 3.72234 8.55262 3.72234C8.59641 3.72234 8.58559 3.74346 8.56197 3.76361C8.52359 3.77897 8.48323 3.79049 8.45125 3.81832C8.26032 3.92007 8.06988 4.02229 7.87895 4.12404C7.85926 4.1442 7.82679 4.14276 7.8071 4.16339C7.61568 4.28146 7.42081 4.39376 7.22939 4.51086C6.94152 4.687 6.663 4.87609 6.38989 5.07382C5.82497 5.4832 5.30188 5.93722 4.83784 6.45458C4.67053 6.64127 4.5165 6.83853 4.36838 7.0401C4.35313 7.05545 4.34968 7.07897 4.33246 7.09289C4.19074 7.30598 4.05787 7.52387 3.94617 7.75375C3.82413 8.00524 3.72571 8.26488 3.65633 8.53508C3.57071 8.86575 3.52789 9.20122 3.54659 9.54197C3.56332 9.85297 3.64747 10.1481 3.76754 10.4366C3.87186 10.6866 4.00079 10.9227 4.15186 11.1483C4.15678 11.155 4.1622 11.1617 4.16712 11.1685C4.18286 11.1838 4.19123 11.2045 4.20501 11.2222C4.31967 11.4007 4.45351 11.5658 4.59278 11.7261C4.60557 11.7492 4.62771 11.764 4.64494 11.7832C4.92543 12.1086 5.24283 12.3961 5.58237 12.661C5.75657 12.7969 5.93421 12.9284 6.12613 13.0402C6.14236 13.0551 6.16352 13.0632 6.18075 13.0762C6.3825 13.2106 6.59656 13.3248 6.81161 13.438C7.09111 13.5849 7.378 13.7169 7.66735 13.8441C7.75593 13.8834 7.84991 13.9113 7.93455 13.9597C7.97245 13.99 8.02215 13.9928 8.06447 14.013C8.09596 14.0384 8.09301 14.0572 8.05019 14.0572L8.04921 14.0552ZM22.4413 12.8746C22.4236 12.8972 22.3882 12.8904 22.371 12.9144C22.3277 12.938 22.2839 12.962 22.2406 12.9855C22.2204 13.0051 22.1874 13.0032 22.1687 13.0253C21.9798 13.14 21.7805 13.236 21.5831 13.3358C21.3209 13.4688 21.0507 13.5859 20.7815 13.7049C20.7407 13.7284 20.6939 13.7375 20.6521 13.7591C20.4991 13.8177 20.3455 13.8743 20.1935 13.9353C20.1512 13.9521 20.1084 13.9655 20.0646 13.977C20.034 13.9876 20.0021 13.9962 19.9706 14.002C19.9386 14.0077 19.9169 13.9972 19.9327 13.9593C20.163 13.8556 20.3972 13.7601 20.6255 13.6511C21.1368 13.4068 21.6324 13.1371 22.0905 12.805C22.465 12.5334 22.8094 12.2296 23.1234 11.8932C23.2631 11.7434 23.3999 11.5903 23.5161 11.4209C23.5353 11.4036 23.5481 11.3811 23.5648 11.3614C23.6844 11.2078 23.7833 11.0418 23.8856 10.8776C23.896 10.8579 23.9097 10.8407 23.9181 10.8205C23.9811 10.6895 24.0515 10.5623 24.1046 10.427C24.1218 10.3986 24.1272 10.366 24.1405 10.3363C24.2134 10.1481 24.268 9.95471 24.299 9.7565C24.3192 9.6298 24.331 9.50022 24.326 9.37064C24.3157 9.07932 24.2827 8.79088 24.2035 8.50868C24.1996 8.49428 24.1976 8.47941 24.1942 8.46453C24.1799 8.42901 24.172 8.3911 24.1597 8.35462C24.1533 8.33687 24.1469 8.31863 24.141 8.30087C24.1258 8.2716 24.1238 8.23704 24.1076 8.20825C24.0333 7.96732 23.9211 7.74223 23.799 7.52147C23.7365 7.40868 23.6681 7.29926 23.6022 7.18839C23.5889 7.17064 23.5874 7.1452 23.5643 7.1332C23.1701 6.56305 22.6958 6.06296 22.1658 5.61182C21.8986 5.38434 21.6201 5.16981 21.3332 4.96632C21.3159 4.95432 21.2972 4.94376 21.279 4.93272C21.2633 4.91688 21.2421 4.90921 21.2249 4.89625C21.2087 4.88137 21.186 4.87465 21.1713 4.85737C21.0291 4.75467 20.8839 4.6558 20.7308 4.56846C20.7131 4.55454 20.6885 4.55118 20.6743 4.53198C20.4341 4.37888 20.19 4.23202 19.9371 4.09956C19.9219 4.08133 19.8977 4.07749 19.8785 4.06549C19.7526 3.98774 19.6128 3.93303 19.4898 3.85C19.4593 3.83032 19.4278 3.81305 19.3938 3.80057C19.3938 3.80057 19.3948 3.80105 19.3953 3.80153L19.3938 3.80057C19.3589 3.77849 19.3205 3.76361 19.2831 3.74634C19.319 3.67914 19.3599 3.7425 19.3983 3.7425C19.4293 3.77081 19.4731 3.76265 19.5085 3.77897C19.7196 3.84712 19.9214 3.93783 20.1241 4.02661C20.2712 4.09092 20.4144 4.16243 20.5596 4.23106C20.5793 4.24114 20.597 4.25458 20.6182 4.26274C20.6231 4.26514 20.628 4.26658 20.6334 4.26706C20.6639 4.28578 20.6969 4.30017 20.7284 4.31793C21.0428 4.48159 21.3533 4.651 21.6501 4.84442C21.6688 4.85545 21.6884 4.86553 21.7062 4.87849C21.9606 5.03303 22.2061 5.20004 22.4428 5.37954C22.6091 5.50576 22.773 5.63534 22.9261 5.7774C22.9472 5.79276 22.9635 5.81387 22.9836 5.82971C23.2307 6.0452 23.4551 6.28181 23.6676 6.52945C23.8035 6.68783 23.9255 6.85628 24.047 7.02474C24.0662 7.03866 24.0697 7.06265 24.0839 7.07945C24.1597 7.20423 24.235 7.32901 24.3108 7.4538C24.328 7.48499 24.3452 7.51571 24.3615 7.54738C24.4491 7.72928 24.5372 7.91069 24.6041 8.10122C24.6169 8.1377 24.6297 8.17417 24.6425 8.21017C24.6572 8.24568 24.6597 8.28503 24.6764 8.32007C24.8044 8.73713 24.8654 9.16283 24.8393 9.59764C24.8181 9.95519 24.7369 10.3003 24.5982 10.6338C24.3369 11.2611 23.9073 11.7616 23.3916 12.2013C23.0953 12.4532 22.7715 12.6673 22.4423 12.8751L22.4413 12.8746ZM26.9233 9.71187C26.8805 10.0665 26.7816 10.4068 26.6266 10.7332C26.3736 11.2654 26.006 11.7084 25.5553 12.0904C25.5346 12.1077 25.5208 12.1331 25.4933 12.1427C25.4716 12.1571 25.4569 12.1801 25.4337 12.1936C25.2748 12.3227 25.1114 12.447 24.9357 12.554C24.9092 12.5689 24.8846 12.5871 24.8595 12.6044C24.7178 12.7038 24.5618 12.781 24.4156 12.8732C24.3949 12.8928 24.3639 12.8933 24.3428 12.9125C24.143 13.0071 23.9476 13.1107 23.7439 13.1962C23.5761 13.2667 23.4063 13.3334 23.2375 13.4016C23.2065 13.4126 23.1741 13.4203 23.1445 13.4356L23.0717 13.4544C23.0373 13.4731 22.993 13.4654 22.9615 13.4928C22.9615 13.4928 22.9615 13.4928 22.962 13.4928H22.961C22.9482 13.4985 22.9329 13.4966 22.9221 13.5072L22.9152 13.5105H22.9078C22.8842 13.5129 22.8537 13.5336 22.8478 13.4884C22.8837 13.4692 22.9256 13.4616 22.9595 13.438C23.1347 13.3541 23.3143 13.2782 23.488 13.1909C24.0111 12.9274 24.5057 12.6217 24.954 12.2473C24.9766 12.2339 24.9923 12.2123 25.0125 12.196C25.3299 11.932 25.6055 11.6311 25.8476 11.3009C25.8584 11.2865 25.8663 11.2702 25.8756 11.2553C25.8904 11.239 25.8998 11.2193 25.9125 11.2016L25.915 11.203C25.9258 11.1843 25.9362 11.1651 25.9504 11.1483C25.9563 11.1358 25.9622 11.1238 25.9682 11.1113C25.9923 11.0849 26.0016 11.0494 26.0238 11.0216C26.1276 10.8522 26.2103 10.6736 26.2826 10.4898C26.3751 10.2537 26.4366 10.0099 26.4725 9.76034C26.5124 9.48294 26.5242 9.2041 26.4765 8.9267C26.4273 8.63922 26.3318 8.36518 26.2058 8.10026C25.8815 7.41876 25.4116 6.83996 24.8811 6.30436C24.5037 5.9233 24.0938 5.57727 23.6617 5.25668C23.645 5.24324 23.6224 5.237 23.6091 5.21876C23.5235 5.15877 23.4442 5.08918 23.3517 5.03831C23.337 5.03111 23.331 5.01479 23.3173 5.00663C23.2981 4.97832 23.2622 4.97256 23.2385 4.95048H23.2375C23.2208 4.91736 23.2356 4.90345 23.2676 4.91113C23.2966 4.91784 23.3217 4.93704 23.3493 4.94904C23.3493 4.94904 23.3493 4.94904 23.3493 4.94856L23.3502 4.94952C23.3502 4.94952 23.3502 4.94952 23.3497 4.94952C23.367 4.97352 23.4009 4.96872 23.4211 4.98839C23.5604 5.05654 23.6883 5.14389 23.8187 5.22692C24.1494 5.43665 24.4707 5.65982 24.7871 5.89018C24.8044 5.90362 24.827 5.90938 24.8393 5.92858C25.2418 6.22901 25.6109 6.56401 25.9381 6.94171C26.2496 7.30166 26.5085 7.69472 26.7009 8.12762C26.7107 8.14969 26.7176 8.17273 26.726 8.19481C26.7417 8.2236 26.7412 8.25816 26.7609 8.28599C26.8185 8.43813 26.8657 8.59267 26.8928 8.75249C26.9061 8.82448 26.9046 8.89887 26.9277 8.9699C26.9651 9.21802 26.9538 9.4671 26.9238 9.71379L26.9233 9.71187Z" fill="currentColor"/>
</svg>
