<svg width="24" height="24" viewBox="0 0 24 24" fill="none" xmlns="http://www.w3.org/2000/svg">
<path d="M24 12C24 18.6274 18.6274 24 12 24C5.37258 24 0 18.6274 0 12C0 5.37258 5.37258 0 12 0C18.6274 0 24 5.37258 24 12Z" fill="#0A93FF"/>
<path fill-rule="evenodd" clip-rule="evenodd" d="M18.6661 7.25408C19.078 7.62191 19.1138 8.25407 18.746 8.66603L12.1137 16.094C11.1522 17.1709 9.51969 17.3067 8.39496 16.3998L5.37231 13.9623C4.94239 13.6157 4.87492 12.9861 5.2216 12.5562C5.56828 12.1263 6.19784 12.0588 6.62776 12.4055L9.6504 14.8429C9.94393 15.0796 10.3685 15.0458 10.6219 14.7619L17.2541 7.33399C17.6219 6.92202 18.2541 6.88624 18.6661 7.25408Z" fill="white"/>
</svg>
